<svg width="235" height="236" viewBox="0 0 235 236" fill="none" xmlns="http://www.w3.org/2000/svg">
<path d="M0.00195312 10.0776C0.00195312 4.55479 4.47911 0.0776367 10.002 0.0776367H215.83C221.353 0.0776367 225.83 4.55479 225.83 10.0776V199.233C225.83 204.756 221.353 209.233 215.83 209.233H10.0019C4.4791 209.233 0.00195312 204.756 0.00195312 199.233V10.0776Z" fill="white"/>
<path d="M90.3478 198.161V186.888L85.9452 195.282H84.0826L79.68 186.888V198.161H76.3418V180.986H79.9219L85.0018 190.759L90.1301 180.986H93.686V198.161H90.3478ZM102.623 198.403C101.607 198.403 100.688 198.233 99.8653 197.895C99.0428 197.54 98.3413 197.064 97.7607 196.467C97.1802 195.855 96.7286 195.161 96.4061 194.387C96.0997 193.597 95.9465 192.766 95.9465 191.895C95.9465 190.686 96.2126 189.581 96.7448 188.581C97.2931 187.582 98.0671 186.783 99.067 186.187C100.083 185.574 101.276 185.267 102.647 185.267C104.034 185.267 105.219 185.574 106.203 186.187C107.187 186.783 107.937 187.582 108.453 188.581C108.985 189.565 109.251 190.629 109.251 191.774C109.251 191.968 109.243 192.17 109.227 192.379C109.211 192.573 109.195 192.734 109.178 192.863H99.3815C99.446 193.508 99.6314 194.073 99.9378 194.556C100.26 195.04 100.664 195.411 101.147 195.669C101.647 195.911 102.179 196.032 102.744 196.032C103.389 196.032 103.994 195.879 104.558 195.572C105.139 195.25 105.534 194.83 105.743 194.314L108.525 195.089C108.219 195.734 107.775 196.306 107.195 196.806C106.63 197.306 105.961 197.701 105.187 197.991C104.413 198.265 103.558 198.403 102.623 198.403ZM99.3089 190.807H105.937C105.872 190.162 105.687 189.605 105.381 189.138C105.09 188.654 104.703 188.283 104.219 188.025C103.736 187.751 103.195 187.614 102.599 187.614C102.018 187.614 101.486 187.751 101.002 188.025C100.535 188.283 100.147 188.654 99.8411 189.138C99.5508 189.605 99.3734 190.162 99.3089 190.807ZM118.773 188.291C117.789 188.291 116.91 188.485 116.136 188.872C115.362 189.243 114.806 189.783 114.467 190.492V198.161H111.226V185.485H114.201V188.194C114.653 187.324 115.225 186.638 115.919 186.138C116.612 185.638 117.346 185.364 118.12 185.316C118.297 185.316 118.434 185.316 118.531 185.316C118.628 185.316 118.708 185.324 118.773 185.34V188.291ZM119.688 191.823C119.688 190.597 119.93 189.493 120.414 188.509C120.898 187.509 121.567 186.719 122.422 186.138C123.276 185.558 124.252 185.267 125.349 185.267C126.284 185.267 127.123 185.501 127.864 185.969C128.622 186.42 129.211 187.001 129.63 187.711V180.502H132.872V194.532C132.872 194.871 132.928 195.113 133.041 195.258C133.154 195.403 133.348 195.492 133.622 195.524V198.161C133.057 198.274 132.598 198.33 132.243 198.33C131.662 198.33 131.178 198.185 130.791 197.895C130.421 197.604 130.211 197.225 130.162 196.758L130.114 195.959C129.646 196.75 129.009 197.354 128.203 197.774C127.413 198.193 126.582 198.403 125.712 198.403C124.841 198.403 124.034 198.233 123.293 197.895C122.567 197.556 121.93 197.088 121.382 196.492C120.849 195.895 120.43 195.201 120.124 194.411C119.833 193.605 119.688 192.742 119.688 191.823ZM129.63 193.516V190.492C129.469 190.025 129.211 189.605 128.856 189.235C128.501 188.864 128.106 188.573 127.671 188.364C127.236 188.138 126.8 188.025 126.365 188.025C125.865 188.025 125.413 188.13 125.01 188.34C124.607 188.549 124.252 188.831 123.946 189.186C123.655 189.541 123.43 189.952 123.268 190.42C123.123 190.888 123.051 191.379 123.051 191.895C123.051 192.411 123.131 192.903 123.293 193.371C123.47 193.823 123.72 194.218 124.042 194.556C124.365 194.895 124.736 195.161 125.155 195.355C125.591 195.548 126.058 195.645 126.558 195.645C126.865 195.645 127.171 195.597 127.477 195.5C127.8 195.387 128.098 195.242 128.372 195.064C128.663 194.871 128.913 194.645 129.122 194.387C129.348 194.113 129.517 193.823 129.63 193.516ZM135.183 194.411C135.183 193.589 135.408 192.871 135.86 192.258C136.328 191.629 136.973 191.146 137.795 190.807C138.618 190.468 139.561 190.299 140.625 190.299C141.158 190.299 141.698 190.339 142.246 190.42C142.794 190.5 143.27 190.629 143.673 190.807V190.13C143.673 189.323 143.431 188.702 142.948 188.267C142.48 187.832 141.778 187.614 140.843 187.614C140.15 187.614 139.488 187.735 138.86 187.977C138.231 188.219 137.569 188.573 136.876 189.041L135.836 186.912C136.674 186.364 137.529 185.953 138.4 185.679C139.287 185.404 140.214 185.267 141.182 185.267C142.988 185.267 144.391 185.719 145.391 186.622C146.407 187.525 146.915 188.815 146.915 190.492V194.532C146.915 194.871 146.971 195.113 147.084 195.258C147.213 195.403 147.415 195.492 147.689 195.524V198.161C147.399 198.209 147.133 198.249 146.891 198.282C146.665 198.314 146.471 198.33 146.31 198.33C145.665 198.33 145.173 198.185 144.834 197.895C144.512 197.604 144.31 197.249 144.23 196.83L144.157 196.177C143.609 196.887 142.923 197.435 142.101 197.822C141.279 198.209 140.44 198.403 139.585 198.403C138.747 198.403 137.989 198.233 137.311 197.895C136.65 197.54 136.126 197.064 135.739 196.467C135.368 195.855 135.183 195.169 135.183 194.411ZM143.069 195.064C143.246 194.871 143.391 194.677 143.504 194.484C143.617 194.29 143.673 194.113 143.673 193.952V192.67C143.286 192.508 142.867 192.387 142.415 192.307C141.964 192.21 141.537 192.162 141.133 192.162C140.295 192.162 139.601 192.347 139.053 192.718C138.521 193.073 138.255 193.548 138.255 194.145C138.255 194.468 138.343 194.774 138.521 195.064C138.698 195.355 138.956 195.588 139.295 195.766C139.634 195.943 140.037 196.032 140.504 196.032C140.988 196.032 141.464 195.943 141.932 195.766C142.399 195.572 142.778 195.338 143.069 195.064Z" fill="black"/>
<path d="M1.17383 11.3262C1.17383 5.80334 5.65098 1.32617 11.1738 1.32617H215.831C221.354 1.32617 225.831 5.80332 225.831 11.3262V164.837C225.831 170.36 221.354 174.837 215.831 174.837H11.1738C5.65098 174.837 1.17383 170.36 1.17383 164.837V11.3262Z" fill="white"/>
<path d="M0.501953 10.0776C0.501953 4.83093 4.75525 0.577637 10.002 0.577637H225.002C230.249 0.577637 234.502 4.83093 234.502 10.0776V225.078C234.502 230.324 230.249 234.578 225.002 234.578H10.002C4.75525 234.578 0.501953 230.324 0.501953 225.078V10.0776Z" fill="white" stroke="black"/>
<path d="M68.7279 198.578V181.403H70.905V198.578H68.7279ZM85.631 198.578H83.5023V191.514C83.5023 190.176 83.2926 189.2 82.8733 188.587C82.4702 187.958 81.8493 187.644 81.0107 187.644C80.4301 187.644 79.8496 187.789 79.269 188.079C78.7046 188.369 78.1966 188.765 77.7451 189.264C77.3096 189.748 76.9952 190.313 76.8016 190.958V198.578H74.6729V185.95H76.6081V188.66C76.9468 188.063 77.3822 187.547 77.9144 187.112C78.4466 186.676 79.0513 186.337 79.7286 186.096C80.406 185.854 81.1155 185.733 81.8574 185.733C82.5831 185.733 83.1878 185.87 83.6716 186.144C84.1715 186.402 84.5586 186.773 84.8327 187.257C85.123 187.724 85.3246 188.281 85.4375 188.926C85.5665 189.571 85.631 190.272 85.631 191.03V198.578ZM93.9728 198.723C93.1181 198.723 92.3278 198.553 91.6021 198.215C90.8926 197.86 90.2798 197.384 89.7637 196.788C89.2477 196.175 88.8445 195.481 88.5542 194.707C88.2801 193.933 88.143 193.127 88.143 192.288C88.143 191.401 88.2801 190.563 88.5542 189.772C88.8445 188.982 89.2477 188.289 89.7637 187.692C90.2959 187.079 90.9168 186.604 91.6263 186.265C92.3359 185.91 93.1261 185.733 93.997 185.733C95.0452 185.733 95.9563 185.991 96.7304 186.507C97.5206 187.023 98.1818 187.676 98.714 188.466V185.95H100.601V198.432C100.601 199.626 100.311 200.634 99.73 201.456C99.1656 202.279 98.3915 202.9 97.4077 203.319C96.4401 203.754 95.3597 203.972 94.1663 203.972C92.7471 203.972 91.586 203.722 90.6829 203.222C89.7798 202.722 89.0299 202.045 88.4333 201.19L89.6669 200.102C90.1669 200.843 90.8119 201.4 91.6021 201.771C92.4085 202.142 93.2632 202.327 94.1663 202.327C94.9404 202.327 95.6499 202.182 96.295 201.892C96.9562 201.618 97.4803 201.19 97.8674 200.61C98.2705 200.029 98.4721 199.303 98.4721 198.432V196.207C98.0044 196.981 97.3594 197.594 96.5369 198.045C95.7306 198.497 94.8759 198.723 93.9728 198.723ZM94.6259 196.981C95.0774 196.981 95.5129 196.9 95.9322 196.739C96.3515 196.578 96.7385 196.368 97.0933 196.11C97.4481 195.836 97.7464 195.53 97.9883 195.191C98.2302 194.852 98.3915 194.506 98.4721 194.151V190.522C98.2463 189.942 97.9238 189.434 97.5045 188.998C97.0852 188.547 96.6095 188.2 96.0773 187.958C95.5451 187.7 94.9968 187.571 94.4324 187.571C93.7873 187.571 93.2068 187.708 92.6907 187.982C92.1908 188.257 91.7634 188.627 91.4086 189.095C91.0538 189.547 90.7797 190.055 90.5862 190.619C90.3926 191.184 90.2959 191.756 90.2959 192.337C90.2959 192.966 90.4088 193.562 90.6345 194.127C90.8603 194.675 91.1667 195.167 91.5538 195.602C91.9408 196.038 92.4004 196.376 92.9326 196.618C93.4648 196.86 94.0292 196.981 94.6259 196.981ZM110.713 187.813C109.648 187.829 108.705 188.103 107.883 188.636C107.076 189.152 106.504 189.869 106.165 190.788V198.578H104.036V185.95H106.02V188.877C106.455 188.007 107.028 187.305 107.737 186.773C108.463 186.225 109.221 185.918 110.011 185.854C110.173 185.854 110.31 185.854 110.423 185.854C110.535 185.854 110.632 185.862 110.713 185.878V187.813ZM118.105 198.82C117.153 198.82 116.283 198.65 115.492 198.312C114.718 197.957 114.041 197.481 113.46 196.884C112.896 196.272 112.453 195.57 112.13 194.78C111.824 193.99 111.67 193.151 111.67 192.264C111.67 191.071 111.945 189.982 112.493 188.998C113.041 188.015 113.799 187.224 114.767 186.628C115.75 186.031 116.871 185.733 118.129 185.733C119.403 185.733 120.508 186.039 121.443 186.652C122.395 187.249 123.128 188.039 123.644 189.023C124.177 189.99 124.443 191.038 124.443 192.167C124.443 192.329 124.435 192.49 124.419 192.651C124.419 192.796 124.41 192.909 124.394 192.99H113.92C113.985 193.812 114.21 194.546 114.597 195.191C115.001 195.82 115.517 196.32 116.146 196.691C116.774 197.046 117.452 197.223 118.178 197.223C118.952 197.223 119.677 197.029 120.355 196.642C121.048 196.255 121.524 195.747 121.782 195.118L123.62 195.626C123.346 196.239 122.935 196.788 122.387 197.271C121.854 197.755 121.217 198.134 120.476 198.408C119.75 198.682 118.96 198.82 118.105 198.82ZM113.848 191.514H122.459C122.395 190.692 122.161 189.966 121.758 189.337C121.354 188.708 120.838 188.216 120.209 187.861C119.581 187.507 118.887 187.329 118.129 187.329C117.387 187.329 116.702 187.507 116.073 187.861C115.444 188.216 114.928 188.708 114.525 189.337C114.138 189.966 113.912 190.692 113.848 191.514ZM131.139 198.82C130.091 198.82 129.107 198.65 128.188 198.312C127.269 197.957 126.478 197.433 125.817 196.739L126.64 195.239C127.365 195.917 128.091 196.401 128.817 196.691C129.542 196.981 130.284 197.126 131.042 197.126C131.913 197.126 132.623 196.965 133.171 196.642C133.719 196.304 133.993 195.812 133.993 195.167C133.993 194.699 133.848 194.352 133.558 194.127C133.284 193.901 132.889 193.715 132.373 193.57C131.857 193.409 131.244 193.232 130.534 193.038C129.663 192.78 128.93 192.506 128.333 192.216C127.736 191.925 127.285 191.563 126.978 191.127C126.672 190.692 126.519 190.143 126.519 189.482C126.519 188.676 126.728 187.999 127.148 187.45C127.567 186.886 128.139 186.458 128.865 186.168C129.607 185.878 130.446 185.733 131.381 185.733C132.316 185.733 133.163 185.878 133.921 186.168C134.679 186.458 135.332 186.886 135.88 187.45L134.913 188.926C134.413 188.41 133.864 188.031 133.268 187.789C132.671 187.531 132.002 187.402 131.26 187.402C130.825 187.402 130.397 187.458 129.978 187.571C129.559 187.668 129.212 187.853 128.938 188.128C128.664 188.386 128.526 188.756 128.526 189.24C128.526 189.643 128.631 189.966 128.841 190.208C129.067 190.434 129.389 190.627 129.809 190.788C130.244 190.95 130.768 191.127 131.381 191.321C132.332 191.595 133.155 191.869 133.848 192.143C134.558 192.417 135.106 192.772 135.493 193.207C135.88 193.643 136.074 194.248 136.074 195.022C136.074 196.215 135.622 197.15 134.719 197.828C133.816 198.489 132.623 198.82 131.139 198.82ZM142.951 198.82C141.902 198.82 140.919 198.65 139.999 198.312C139.08 197.957 138.29 197.433 137.629 196.739L138.451 195.239C139.177 195.917 139.903 196.401 140.628 196.691C141.354 196.981 142.096 197.126 142.854 197.126C143.725 197.126 144.434 196.965 144.982 196.642C145.531 196.304 145.805 195.812 145.805 195.167C145.805 194.699 145.66 194.352 145.37 194.127C145.095 193.901 144.7 193.715 144.184 193.57C143.668 193.409 143.055 193.232 142.346 193.038C141.475 192.78 140.741 192.506 140.144 192.216C139.548 191.925 139.096 191.563 138.79 191.127C138.483 190.692 138.33 190.143 138.33 189.482C138.33 188.676 138.54 187.999 138.959 187.45C139.378 186.886 139.951 186.458 140.677 186.168C141.418 185.878 142.257 185.733 143.192 185.733C144.128 185.733 144.974 185.878 145.732 186.168C146.49 186.458 147.143 186.886 147.692 187.45L146.724 188.926C146.224 188.41 145.676 188.031 145.079 187.789C144.483 187.531 143.813 187.402 143.071 187.402C142.636 187.402 142.209 187.458 141.789 187.571C141.37 187.668 141.023 187.853 140.749 188.128C140.475 188.386 140.338 188.756 140.338 189.24C140.338 189.643 140.443 189.966 140.652 190.208C140.878 190.434 141.201 190.627 141.62 190.788C142.056 190.95 142.58 191.127 143.192 191.321C144.144 191.595 144.966 191.869 145.66 192.143C146.369 192.417 146.918 192.772 147.305 193.207C147.692 193.643 147.885 194.248 147.885 195.022C147.885 196.215 147.434 197.15 146.531 197.828C145.628 198.489 144.434 198.82 142.951 198.82ZM155.947 198.82C154.996 198.82 154.133 198.65 153.359 198.312C152.585 197.957 151.916 197.481 151.351 196.884C150.787 196.272 150.351 195.57 150.045 194.78C149.739 193.99 149.585 193.159 149.585 192.288C149.585 191.401 149.739 190.563 150.045 189.772C150.351 188.982 150.787 188.289 151.351 187.692C151.916 187.079 152.585 186.604 153.359 186.265C154.149 185.91 155.012 185.733 155.947 185.733C156.899 185.733 157.762 185.91 158.536 186.265C159.31 186.604 159.979 187.079 160.543 187.692C161.124 188.289 161.568 188.982 161.874 189.772C162.18 190.563 162.334 191.401 162.334 192.288C162.334 193.159 162.18 193.99 161.874 194.78C161.568 195.57 161.132 196.272 160.568 196.884C160.003 197.481 159.326 197.957 158.536 198.312C157.762 198.65 156.899 198.82 155.947 198.82ZM151.762 192.312C151.762 193.183 151.948 193.973 152.319 194.683C152.706 195.393 153.214 195.957 153.843 196.376C154.472 196.78 155.173 196.981 155.947 196.981C156.721 196.981 157.423 196.771 158.052 196.352C158.697 195.933 159.205 195.368 159.576 194.659C159.963 193.933 160.156 193.135 160.156 192.264C160.156 191.393 159.963 190.603 159.576 189.893C159.205 189.184 158.697 188.619 158.052 188.2C157.423 187.781 156.721 187.571 155.947 187.571C155.173 187.571 154.472 187.789 153.843 188.224C153.214 188.644 152.706 189.208 152.319 189.918C151.948 190.627 151.762 191.425 151.762 192.312Z" fill="black"/>
<path d="M6.98438 13.8692C6.98438 8.3463 11.4615 3.86914 16.9844 3.86914H208.849C214.372 3.86914 218.849 8.34629 218.849 13.8691V167.38C218.849 172.903 214.372 177.38 208.849 177.38H16.9844C11.4615 177.38 6.98438 172.903 6.98438 167.38V13.8692Z" fill="white"/>
<g clip-path="url(#clip0_630_1055)">
<path d="M75.9315 73.404V96.6768H71.011V73.404H75.9315ZM84.7298 86.5858V96.6768H79.8888V79.2222H84.5025V82.3018H84.707C85.0934 81.2866 85.7411 80.4836 86.6502 79.8927C87.5593 79.2942 88.6616 78.9949 89.957 78.9949C91.1692 78.9949 92.226 79.2601 93.1275 79.7904C94.029 80.3207 94.7298 81.0783 95.2298 82.0631C95.7298 83.0404 95.9798 84.2071 95.9798 85.5631V96.6768H91.1389V86.4268C91.1464 85.3586 90.8737 84.5252 90.3207 83.9268C89.7676 83.3207 89.0063 83.0177 88.0366 83.0177C87.3851 83.0177 86.8093 83.1578 86.3093 83.4381C85.8169 83.7184 85.4305 84.1275 85.1502 84.6654C84.8775 85.1957 84.7373 85.8358 84.7298 86.5858ZM107.659 103.586C106.091 103.586 104.746 103.37 103.625 102.938C102.511 102.514 101.625 101.934 100.966 101.199C100.306 100.465 99.8784 99.6389 99.6815 98.7222L104.159 98.1199C104.295 98.4684 104.511 98.7942 104.806 99.0972C105.102 99.4002 105.492 99.6427 105.977 99.8245C106.469 100.014 107.068 100.109 107.772 100.109C108.825 100.109 109.693 99.851 110.375 99.3358C111.064 98.8283 111.409 97.976 111.409 96.779V93.5858H111.204C110.992 94.0707 110.674 94.529 110.25 94.9608C109.825 95.3927 109.28 95.7449 108.613 96.0177C107.947 96.2904 107.151 96.4268 106.227 96.4268C104.916 96.4268 103.723 96.1237 102.647 95.5177C101.579 94.904 100.727 93.9684 100.091 92.7108C99.4618 91.4457 99.1474 89.8472 99.1474 87.9154C99.1474 85.9381 99.4693 84.2866 100.113 82.9608C100.757 81.6351 101.613 80.6427 102.681 79.9836C103.757 79.3245 104.935 78.9949 106.216 78.9949C107.193 78.9949 108.011 79.1616 108.67 79.4949C109.329 79.8207 109.859 80.2298 110.261 80.7222C110.67 81.2071 110.984 81.6843 111.204 82.154H111.386V79.2222H116.193V96.8472C116.193 98.3321 115.829 99.5745 115.102 100.574C114.375 101.574 113.367 102.324 112.079 102.824C110.799 103.332 109.325 103.586 107.659 103.586ZM107.761 92.7904C108.541 92.7904 109.2 92.5972 109.738 92.2108C110.284 91.8169 110.7 91.2563 110.988 90.529C111.284 89.7942 111.431 88.9154 111.431 87.8927C111.431 86.8699 111.288 85.9836 111 85.2336C110.712 84.476 110.295 83.8889 109.75 83.4722C109.204 83.0555 108.541 82.8472 107.761 82.8472C106.966 82.8472 106.295 83.0631 105.75 83.4949C105.204 83.9192 104.791 84.5101 104.511 85.2677C104.231 86.0252 104.091 86.9002 104.091 87.8927C104.091 88.9002 104.231 89.7715 104.511 90.5063C104.799 91.2336 105.212 91.798 105.75 92.1995C106.295 92.5934 106.966 92.7904 107.761 92.7904ZM120.045 96.6768V79.2222H124.738V82.2677H124.92C125.238 81.1843 125.772 80.3662 126.522 79.8131C127.272 79.2525 128.136 78.9722 129.113 78.9722C129.356 78.9722 129.617 78.9874 129.897 79.0177C130.178 79.048 130.424 79.0896 130.636 79.1427V83.4381C130.409 83.3699 130.094 83.3093 129.693 83.2563C129.291 83.2033 128.924 83.1768 128.591 83.1768C127.878 83.1768 127.242 83.3321 126.681 83.6427C126.128 83.9457 125.689 84.3699 125.363 84.9154C125.045 85.4608 124.886 86.0896 124.886 86.8018V96.6768H120.045ZM140.281 97.0177C138.485 97.0177 136.94 96.654 135.645 95.9268C134.357 95.1919 133.364 94.154 132.667 92.8131C131.97 91.4646 131.622 89.8699 131.622 88.029C131.622 86.2336 131.97 84.6578 132.667 83.3018C133.364 81.9457 134.345 80.8889 135.61 80.1313C136.883 79.3737 138.376 78.9949 140.088 78.9949C141.239 78.9949 142.311 79.1805 143.304 79.5518C144.304 79.9154 145.175 80.4646 145.917 81.1995C146.667 81.9343 147.251 82.8586 147.667 83.9722C148.084 85.0783 148.292 86.3737 148.292 87.8586V89.1881H133.554V86.1881H143.735C143.735 85.4912 143.584 84.8737 143.281 84.3358C142.978 83.798 142.557 83.3775 142.02 83.0745C141.489 82.7639 140.872 82.6086 140.167 82.6086C139.432 82.6086 138.781 82.779 138.213 83.1199C137.652 83.4533 137.213 83.904 136.895 84.4722C136.576 85.0328 136.413 85.6578 136.406 86.3472V89.1995C136.406 90.0631 136.565 90.8093 136.883 91.4381C137.209 92.0669 137.667 92.5518 138.258 92.8927C138.849 93.2336 139.55 93.404 140.36 93.404C140.898 93.404 141.391 93.3283 141.838 93.1768C142.285 93.0252 142.667 92.798 142.985 92.4949C143.304 92.1919 143.546 91.8207 143.713 91.3813L148.19 91.6768C147.963 92.7525 147.497 93.6919 146.792 94.4949C146.095 95.2904 145.194 95.9116 144.088 96.3586C142.989 96.798 141.72 97.0177 140.281 97.0177ZM165.974 84.1995L161.542 84.4722C161.467 84.0934 161.304 83.7525 161.054 83.4495C160.804 83.1389 160.474 82.8927 160.065 82.7108C159.663 82.5215 159.182 82.4268 158.622 82.4268C157.872 82.4268 157.239 82.5858 156.724 82.904C156.209 83.2146 155.951 83.6313 155.951 84.154C155.951 84.5707 156.118 84.923 156.451 85.2108C156.785 85.4987 157.357 85.7298 158.167 85.904L161.326 86.5404C163.023 86.8889 164.288 87.4495 165.122 88.2222C165.955 88.9949 166.372 90.0101 166.372 91.2677C166.372 92.4116 166.035 93.4154 165.36 94.279C164.694 95.1427 163.777 95.8169 162.61 96.3018C161.451 96.779 160.114 97.0177 158.599 97.0177C156.288 97.0177 154.448 96.5366 153.076 95.5745C151.713 94.6048 150.913 93.2866 150.679 91.6199L155.44 91.3699C155.584 92.0745 155.932 92.6124 156.485 92.9836C157.038 93.3472 157.747 93.529 158.61 93.529C159.459 93.529 160.141 93.3662 160.656 93.0404C161.179 92.7071 161.444 92.279 161.451 91.7563C161.444 91.3169 161.258 90.9571 160.895 90.6768C160.531 90.3889 159.97 90.1692 159.213 90.0177L156.19 89.4154C154.485 89.0745 153.217 88.4836 152.383 87.6427C151.557 86.8018 151.145 85.7298 151.145 84.4268C151.145 83.3055 151.448 82.3396 152.054 81.529C152.667 80.7184 153.527 80.0934 154.633 79.654C155.747 79.2146 157.05 78.9949 158.542 78.9949C160.747 78.9949 162.482 79.4608 163.747 80.3927C165.02 81.3245 165.762 82.5934 165.974 84.1995ZM183.943 84.1995L179.511 84.4722C179.435 84.0934 179.272 83.7525 179.022 83.4495C178.772 83.1389 178.443 82.8927 178.034 82.7108C177.632 82.5215 177.151 82.4268 176.591 82.4268C175.841 82.4268 175.208 82.5858 174.693 82.904C174.178 83.2146 173.92 83.6313 173.92 84.154C173.92 84.5707 174.087 84.923 174.42 85.2108C174.753 85.4987 175.325 85.7298 176.136 85.904L179.295 86.5404C180.992 86.8889 182.257 87.4495 183.091 88.2222C183.924 88.9949 184.341 90.0101 184.341 91.2677C184.341 92.4116 184.003 93.4154 183.329 94.279C182.663 95.1427 181.746 95.8169 180.579 96.3018C179.42 96.779 178.083 97.0177 176.568 97.0177C174.257 97.0177 172.416 96.5366 171.045 95.5745C169.681 94.6048 168.882 93.2866 168.647 91.6199L173.409 91.3699C173.553 92.0745 173.901 92.6124 174.454 92.9836C175.007 93.3472 175.716 93.529 176.579 93.529C177.428 93.529 178.109 93.3662 178.625 93.0404C179.147 92.7071 179.413 92.279 179.42 91.7563C179.413 91.3169 179.227 90.9571 178.863 90.6768C178.5 90.3889 177.939 90.1692 177.181 90.0177L174.159 89.4154C172.454 89.0745 171.185 88.4836 170.352 87.6427C169.526 86.8018 169.113 85.7298 169.113 84.4268C169.113 83.3055 169.416 82.3396 170.022 81.529C170.636 80.7184 171.496 80.0934 172.602 79.654C173.716 79.2146 175.019 78.9949 176.511 78.9949C178.716 78.9949 180.45 79.4608 181.716 80.3927C182.988 81.3245 183.731 82.5934 183.943 84.1995ZM195.275 97.0177C193.51 97.0177 191.984 96.6427 190.696 95.8927C189.415 95.1351 188.427 94.0821 187.73 92.7336C187.033 91.3775 186.684 89.8055 186.684 88.0177C186.684 86.2146 187.033 84.6389 187.73 83.2904C188.427 81.9343 189.415 80.8813 190.696 80.1313C191.984 79.3737 193.51 78.9949 195.275 78.9949C197.04 78.9949 198.563 79.3737 199.843 80.1313C201.131 80.8813 202.124 81.9343 202.821 83.2904C203.518 84.6389 203.866 86.2146 203.866 88.0177C203.866 89.8055 203.518 91.3775 202.821 92.7336C202.124 94.0821 201.131 95.1351 199.843 95.8927C198.563 96.6427 197.04 97.0177 195.275 97.0177ZM195.298 93.2677C196.101 93.2677 196.771 93.0404 197.309 92.5858C197.847 92.1237 198.252 91.4949 198.525 90.6995C198.806 89.904 198.946 88.9987 198.946 87.9836C198.946 86.9684 198.806 86.0631 198.525 85.2677C198.252 84.4722 197.847 83.8434 197.309 83.3813C196.771 82.9192 196.101 82.6881 195.298 82.6881C194.487 82.6881 193.806 82.9192 193.252 83.3813C192.707 83.8434 192.294 84.4722 192.014 85.2677C191.741 86.0631 191.605 86.9684 191.605 87.9836C191.605 88.9987 191.741 89.904 192.014 90.6995C192.294 91.4949 192.707 92.1237 193.252 92.5858C193.806 93.0404 194.487 93.2677 195.298 93.2677Z" fill="black"/>
<path d="M68.7773 68.5776C56.3957 77.3908 42.0391 83.1122 26.9336 85.2534C35.5117 95.4029 41.1165 100.695 47.5625 108.375C55.0635 95.391 61.7375 82.0082 68.7069 68.712C68.7304 68.6672 68.7539 68.6224 68.7773 68.5776Z" fill="#FF0000"/>
</g>
<defs>
<clipPath id="clip0_630_1055">
<path d="M26.9336 78.5776C26.9336 73.0548 31.4107 68.5776 36.9336 68.5776H192.441C197.964 68.5776 202.441 73.0548 202.441 78.5776V98.3745C202.441 103.897 197.964 108.375 192.441 108.375H36.9336C31.4108 108.375 26.9336 103.897 26.9336 98.3745V78.5776Z" fill="white"/>
</clipPath>
</defs>
</svg>
