<svg xmlns="http://www.w3.org/2000/svg" width="235" height="236" fill="none"><path fill="#fff" d="M.002 10.078c0-5.523 4.477-10 10-10H215.83c5.523 0 10 4.477 10 10v189.155c0 5.523-4.477 10-10 10H10.002c-5.523 0-10-4.477-10-10z"/><path fill="#000" d="M90.348 198.161v-11.273l-4.403 8.394h-1.862l-4.403-8.394v11.273h-3.338v-17.175h3.58l5.08 9.773 5.128-9.773h3.556v17.175zm12.275.242q-1.524 0-2.758-.508a6.5 6.5 0 0 1-2.104-1.428 6.8 6.8 0 0 1-1.355-2.08 6.8 6.8 0 0 1-.46-2.492q0-1.814.799-3.314a6.25 6.25 0 0 1 2.322-2.394q1.524-.92 3.58-.92 2.08 0 3.556.92a5.95 5.95 0 0 1 2.25 2.394q.798 1.476.798 3.193 0 .291-.024.605-.024.29-.049.484h-9.796q.096.968.556 1.693.484.726 1.209 1.113.75.363 1.597.363.968 0 1.814-.46.872-.483 1.185-1.258l2.782.775a5.2 5.2 0 0 1-1.33 1.717q-.847.75-2.008 1.185-1.161.412-2.564.412m-3.314-7.596h6.628q-.097-.968-.556-1.669a2.96 2.96 0 0 0-1.162-1.113 3.2 3.2 0 0 0-1.62-.411q-.871 0-1.597.411a3.2 3.2 0 0 0-1.16 1.113q-.437.701-.533 1.669m19.464-2.516q-1.476 0-2.637.581-1.16.556-1.669 1.62v7.669h-3.241v-12.676h2.975v2.709q.677-1.305 1.718-2.056 1.04-.75 2.201-.822h.411q.145 0 .242.024zm.915 3.532q0-1.838.726-3.314.726-1.5 2.008-2.371 1.281-.87 2.927-.871 1.403 0 2.515.702 1.137.677 1.766 1.742v-7.209h3.242v14.03q0 .508.169.726.17.218.581.266v2.637q-.847.17-1.379.169-.871 0-1.452-.435-.555-.436-.629-1.137l-.048-.799a4.7 4.7 0 0 1-1.911 1.815 5.25 5.25 0 0 1-2.491.629q-1.307 0-2.419-.508a6.1 6.1 0 0 1-1.911-1.403 6.8 6.8 0 0 1-1.258-2.081 7.6 7.6 0 0 1-.436-2.588m9.942 1.693v-3.024a3.4 3.4 0 0 0-.774-1.257 4.1 4.1 0 0 0-1.185-.871 2.8 2.8 0 0 0-1.306-.339q-.75 0-1.355.315a3.6 3.6 0 0 0-1.064.846 4 4 0 0 0-.678 1.234 5 5 0 0 0-.217 1.475q0 .774.242 1.476.266.678.749 1.185.484.508 1.113.799.654.29 1.403.29.46 0 .919-.145a4.2 4.2 0 0 0 .895-.436q.436-.29.75-.677.339-.41.508-.871m5.553.895q0-1.233.677-2.153.702-.943 1.935-1.451t2.83-.508q.8 0 1.621.121.822.12 1.427.387v-.677q0-1.21-.725-1.863-.702-.653-2.105-.653a5.5 5.5 0 0 0-1.983.363q-.944.362-1.984 1.064l-1.04-2.129a10.4 10.4 0 0 1 2.564-1.233 9.3 9.3 0 0 1 2.782-.412q2.709 0 4.209 1.355 1.524 1.355 1.524 3.87v4.04q0 .508.169.726.194.218.605.266v2.637q-.435.072-.798.121-.34.048-.581.048-.968 0-1.476-.435a1.88 1.88 0 0 1-.604-1.065l-.073-.653a5.54 5.54 0 0 1-2.056 1.645 5.85 5.85 0 0 1-2.516.581q-1.257 0-2.274-.508a4.2 4.2 0 0 1-1.572-1.428 3.9 3.9 0 0 1-.556-2.056m7.886.653q.266-.29.435-.58.17-.29.169-.532v-1.282a6 6 0 0 0-1.258-.363 6 6 0 0 0-1.282-.145q-1.257 0-2.08.556-.798.532-.798 1.427 0 .484.266.919t.774.702q.508.266 1.209.266.726 0 1.428-.266.7-.291 1.137-.702"/><path fill="#fff" d="M1.174 11.326c0-5.523 4.477-10 10-10H215.83c5.523 0 10 4.477 10 10v153.511c0 5.523-4.477 10-10 10H11.174c-5.523 0-10-4.477-10-10z"/><path fill="#fff" stroke="#000" d="M.502 10.078a9.5 9.5 0 0 1 9.5-9.5h215a9.5 9.5 0 0 1 9.5 9.5v215a9.5 9.5 0 0 1-9.5 9.5h-215a9.5 9.5 0 0 1-9.5-9.5z"/><path fill="#000" d="M68.728 198.578v-17.175h2.177v17.175zm16.903 0h-2.129v-7.064q0-2.007-.629-2.927-.605-.943-1.862-.943-.87 0-1.742.435a5.3 5.3 0 0 0-1.524 1.185 4.4 4.4 0 0 0-.943 1.694v7.62h-2.13V185.95h1.936v2.71a5.5 5.5 0 0 1 1.306-1.548 6 6 0 0 1 1.815-1.016 6.3 6.3 0 0 1 2.128-.363q1.088 0 1.815.411.75.387 1.16 1.113.437.701.606 1.669.193.967.193 2.104zm8.342.145q-1.282 0-2.37-.508a5.9 5.9 0 0 1-1.84-1.427 7 7 0 0 1-1.209-2.081 7.2 7.2 0 0 1-.411-2.419q0-1.33.411-2.516.436-1.185 1.21-2.08a5.7 5.7 0 0 1 1.862-1.427q1.065-.532 2.371-.532 1.573 0 2.733.774a7 7 0 0 1 1.984 1.959v-2.516h1.887v12.482q0 1.791-.871 3.024-.847 1.234-2.322 1.863-1.452.653-3.242.653-2.128 0-3.483-.75a6.6 6.6 0 0 1-2.25-2.032l1.234-1.088a4.7 4.7 0 0 0 1.935 1.669 6.1 6.1 0 0 0 2.564.556q1.161 0 2.129-.435a3.4 3.4 0 0 0 1.572-1.282q.605-.871.605-2.178v-2.225a5.05 5.05 0 0 1-1.935 1.838 5.17 5.17 0 0 1-2.564.678m.653-1.742q.677 0 1.306-.242.63-.242 1.161-.629.532-.41.895-.919.363-.508.484-1.04v-3.629a4.6 4.6 0 0 0-.968-1.524 4.5 4.5 0 0 0-1.427-1.04 3.7 3.7 0 0 0-1.645-.387q-.967 0-1.741.411-.75.412-1.282 1.113-.533.678-.823 1.524a5.3 5.3 0 0 0-.29 1.718q0 .943.338 1.79.34.822.92 1.475a4.08 4.08 0 0 0 3.072 1.379m16.087-9.168q-1.597.024-2.83.823a4.2 4.2 0 0 0-1.718 2.152v7.79h-2.129V185.95h1.984v2.927q.653-1.306 1.717-2.104 1.089-.823 2.274-.919h.412q.168 0 .29.024zm7.392 11.007q-1.427 0-2.613-.508a6.7 6.7 0 0 1-2.032-1.428 7 7 0 0 1-1.33-2.104 6.9 6.9 0 0 1-.46-2.516q0-1.79.823-3.266a6.4 6.4 0 0 1 2.274-2.37q1.475-.895 3.362-.895 1.911 0 3.314.919a6.1 6.1 0 0 1 2.201 2.371 6.4 6.4 0 0 1 .775 3.628q0 .218-.025.339H113.92q.097 1.233.677 2.201.606.944 1.549 1.5a4.06 4.06 0 0 0 2.032.532 4.3 4.3 0 0 0 2.177-.581q1.04-.58 1.427-1.524l1.838.508a4.8 4.8 0 0 1-1.233 1.645 5.8 5.8 0 0 1-1.911 1.137 6.7 6.7 0 0 1-2.371.412m-4.257-7.306h8.611q-.096-1.233-.701-2.177a4.4 4.4 0 0 0-1.549-1.476 4.17 4.17 0 0 0-2.08-.532q-1.113 0-2.056.532a4.4 4.4 0 0 0-1.548 1.476q-.58.944-.677 2.177m17.291 7.306a8.5 8.5 0 0 1-2.951-.508 6.4 6.4 0 0 1-2.371-1.573l.823-1.5q1.088 1.017 2.177 1.452t2.225.435q1.307 0 2.129-.484.822-.507.822-1.475 0-.702-.435-1.04-.411-.34-1.185-.557a55 55 0 0 0-1.839-.532q-1.306-.387-2.201-.822-.895-.436-1.355-1.089t-.459-1.645q0-1.209.629-2.032.628-.846 1.717-1.282 1.113-.435 2.516-.435t2.54.435 1.959 1.282l-.967 1.476a4.8 4.8 0 0 0-1.645-1.137q-.895-.387-2.008-.387-.653 0-1.282.169a2.1 2.1 0 0 0-1.04.557q-.411.387-.412 1.112 0 .605.315.968.339.339.968.58.653.243 1.572.533 1.427.411 2.467.822 1.065.411 1.645 1.064.58.654.581 1.815 0 1.79-1.355 2.806-1.354.992-3.58.992m11.812 0a8.5 8.5 0 0 1-2.952-.508 6.4 6.4 0 0 1-2.37-1.573l.822-1.5q1.09 1.017 2.177 1.452 1.089.435 2.226.435 1.306 0 2.128-.484.823-.507.823-1.475 0-.702-.435-1.04-.412-.34-1.186-.557a55 55 0 0 0-1.838-.532q-1.306-.387-2.202-.822-.894-.436-1.354-1.089t-.46-1.645q0-1.209.629-2.032.629-.846 1.718-1.282 1.112-.435 2.515-.435t2.54.435 1.96 1.282l-.968 1.476a4.8 4.8 0 0 0-1.645-1.137q-.894-.387-2.008-.387a5 5 0 0 0-1.282.169 2.1 2.1 0 0 0-1.04.557q-.411.387-.411 1.112 0 .605.314.968.34.339.968.58.654.243 1.572.533 1.428.411 2.468.822 1.064.411 1.645 1.064.58.654.58 1.815 0 1.79-1.354 2.806-1.355.992-3.58.992m12.996 0q-1.427 0-2.588-.508a6.4 6.4 0 0 1-2.008-1.428 6.6 6.6 0 0 1-1.306-2.104 6.8 6.8 0 0 1-.46-2.492q0-1.33.46-2.516a6.3 6.3 0 0 1 1.306-2.08 5.9 5.9 0 0 1 2.008-1.427 6.2 6.2 0 0 1 2.588-.532q1.428 0 2.589.532a5.9 5.9 0 0 1 2.007 1.427 6.1 6.1 0 0 1 1.331 2.08 6.9 6.9 0 0 1 .46 2.516 6.8 6.8 0 0 1-.46 2.492 6.6 6.6 0 0 1-1.306 2.104 6.3 6.3 0 0 1-2.032 1.428q-1.161.507-2.589.508m-4.185-6.508q0 1.306.557 2.371.58 1.065 1.524 1.693a3.8 3.8 0 0 0 2.104.605q1.161 0 2.105-.629a4.4 4.4 0 0 0 1.524-1.693 5 5 0 0 0 .58-2.395q0-1.306-.58-2.371a4.4 4.4 0 0 0-1.524-1.693 3.7 3.7 0 0 0-2.105-.629q-1.16 0-2.104.653a4.7 4.7 0 0 0-1.524 1.694q-.557 1.064-.557 2.394"/><path fill="#fff" d="M6.984 13.87c0-5.524 4.477-10 10-10H208.85c5.523 0 10 4.476 10 10v153.51c0 5.523-4.477 10-10 10H16.984c-5.523 0-10-4.477-10-10z"/><g clip-path="url(#a)"><path fill="#000" d="M75.932 73.404v23.273H71.01V73.404zm8.798 13.182v10.09h-4.841V79.223h4.614v3.08h.204a4.87 4.87 0 0 1 1.943-2.41q1.365-.897 3.307-.897 1.818 0 3.17.795 1.353.795 2.103 2.273.75 1.466.75 3.5v11.114h-4.841v-10.25q.011-1.602-.818-2.5-.83-.91-2.284-.91-.978 0-1.728.421a2.93 2.93 0 0 0-1.159 1.227q-.41.795-.42 1.92m22.929 17q-2.352 0-4.034-.648-1.67-.636-2.659-1.739a5.33 5.33 0 0 1-1.284-2.477l4.477-.602q.204.522.647.977t1.171.728q.739.284 1.795.284 1.58 0 2.603-.773 1.034-.762 1.034-2.557v-3.193h-.205a4.6 4.6 0 0 1-.954 1.375q-.637.648-1.637 1.057t-2.386.409q-1.966 0-3.58-.91-1.602-.92-2.556-2.806-.945-1.898-.944-4.796 0-2.965.966-4.954t2.568-2.977a6.64 6.64 0 0 1 3.535-.99q1.466.001 2.454.5.988.49 1.591 1.228.613.727.943 1.432h.182v-2.932h4.807v17.625q0 2.228-1.091 3.727-1.09 1.5-3.023 2.25-1.92.762-4.42.762m.102-10.796q1.17 0 1.977-.58.819-.59 1.25-1.681.444-1.103.443-2.636 0-1.535-.431-2.66-.432-1.136-1.25-1.76-.819-.627-1.989-.626-1.193 0-2.011.648-.819.636-1.239 1.773-.42 1.136-.42 2.625 0 1.511.42 2.613.432 1.092 1.239 1.694.818.59 2.011.59m12.284 3.887V79.222h4.693v3.046h.182q.477-1.626 1.602-2.455 1.125-.84 2.591-.84.364 0 .784.045t.739.125v4.295a6 6 0 0 0-.943-.182 8.5 8.5 0 0 0-1.102-.08q-1.069 0-1.91.467a3.43 3.43 0 0 0-1.318 1.272q-.477.819-.477 1.887v9.875zm20.236.34q-2.694 0-4.636-1.09a7.47 7.47 0 0 1-2.978-3.114q-1.045-2.022-1.045-4.784 0-2.693 1.045-4.727t2.943-3.17q1.91-1.137 4.478-1.137 1.727 0 3.216.557 1.5.545 2.613 1.647 1.125 1.103 1.75 2.773.625 1.66.625 3.887v1.33h-14.738v-3h10.181q0-1.046-.454-1.853a3.26 3.26 0 0 0-1.261-1.261q-.796-.466-1.853-.466-1.102 0-1.954.51-.841.501-1.318 1.353a3.8 3.8 0 0 0-.489 1.875V89.2q0 1.295.477 2.238a3.5 3.5 0 0 0 1.375 1.455q.887.51 2.102.511.807 0 1.478-.227a3.1 3.1 0 0 0 1.147-.682 2.96 2.96 0 0 0 .728-1.114l4.477.296a6.1 6.1 0 0 1-1.398 2.818q-1.045 1.193-2.704 1.864-1.648.659-3.807.659M165.974 84.2l-4.432.272a2.3 2.3 0 0 0-.488-1.022q-.375-.466-.989-.74-.603-.282-1.443-.283-1.125 0-1.898.477-.773.465-.773 1.25 0 .625.5 1.057.501.432 1.716.693l3.159.636q2.545.524 3.796 1.682 1.25 1.16 1.25 3.046 0 1.716-1.012 3.011-1 1.296-2.75 2.023-1.739.716-4.011.716-3.466 0-5.523-1.444-2.045-1.454-2.397-3.954l4.761-.25q.216 1.056 1.045 1.614.83.545 2.125.545 1.274 0 2.046-.489.785-.5.795-1.284-.011-.66-.556-1.08-.546-.431-1.682-.658l-3.023-.603q-2.557-.51-3.807-1.772-1.238-1.261-1.238-3.216 0-1.682.909-2.898.92-1.216 2.579-1.875 1.671-.66 3.909-.66 3.308 0 5.205 1.399 1.91 1.396 2.227 3.807m17.969 0-4.432.272a2.3 2.3 0 0 0-.489-1.022 2.6 2.6 0 0 0-.988-.74q-.603-.282-1.443-.283-1.125 0-1.898.477-.773.465-.773 1.25 0 .625.5 1.057t1.716.693l3.159.636q2.545.524 3.796 1.682 1.25 1.16 1.25 3.046 0 1.716-1.012 3.011-1 1.296-2.75 2.023-1.738.716-4.011.716-3.467 0-5.523-1.444-2.046-1.454-2.398-3.954l4.762-.25q.216 1.056 1.045 1.614.83.545 2.125.545 1.273 0 2.046-.489.784-.5.795-1.284-.01-.66-.557-1.08-.545-.431-1.682-.658l-3.022-.603q-2.557-.51-3.807-1.772-1.239-1.261-1.239-3.216 0-1.682.909-2.898.921-1.216 2.58-1.875 1.671-.66 3.909-.66 3.307 0 5.205 1.399 1.908 1.396 2.227 3.807m11.332 12.818q-2.647 0-4.579-1.125a7.7 7.7 0 0 1-2.966-3.16q-1.046-2.034-1.046-4.715 0-2.705 1.046-4.728 1.045-2.034 2.966-3.159 1.932-1.136 4.579-1.136 2.648 0 4.568 1.136 1.932 1.125 2.978 3.16 1.045 2.022 1.045 4.727 0 2.681-1.045 4.716a7.7 7.7 0 0 1-2.978 3.159q-1.92 1.125-4.568 1.125m.023-3.75q1.204 0 2.011-.682.807-.693 1.216-1.886.421-1.194.421-2.716t-.421-2.716q-.41-1.194-1.216-1.887-.807-.693-2.011-.693-1.216 0-2.046.693-.818.693-1.238 1.887-.41 1.192-.409 2.716 0 1.522.409 2.716.42 1.193 1.238 1.886.83.681 2.046.682"/><path fill="red" d="M68.777 68.578a95.2 95.2 0 0 1-41.843 16.675c8.578 10.15 14.183 15.442 20.629 23.122 7.5-12.984 14.174-26.367 21.144-39.663z"/></g><defs><clipPath id="a"><path fill="#fff" d="M26.934 78.578c0-5.523 4.477-10 10-10H192.44c5.523 0 10 4.477 10 10v19.796c0 5.523-4.477 10.001-10 10.001H36.934c-5.523 0-10-4.478-10-10z"/></clipPath></defs></svg>