<svg xmlns="http://www.w3.org/2000/svg" width="407" height="392" fill="none"><g filter="url(#a)"><path stroke="#595959" stroke-width=".6" d="M0-.3h120.937" transform="matrix(.90745 -.42016 .48923 .87215 80.176 86.115)"/></g><path stroke="#3867FB" d="M0-.5h127.469" transform="matrix(.92164 .38805 -.35842 .93356 189.92 35.302)"/><g filter="url(#b)"><path stroke="#595959" d="M0-.5h119.816" transform="matrix(.89355 .44896 -.51996 .8542 80.865 195.039)"/></g><g filter="url(#c)"><path stroke="#595959" d="M0-.5h130.801" transform="matrix(.91152 -.41125 .47963 .87747 187.928 248.831)"/></g><path stroke="#595959" d="M0-.5h134.044" transform="rotate(89.681 -11.962 62.298)skewX(-.056)"/><g filter="url(#d)"><path stroke="#5A5858" d="M0-.5h157.067" transform="matrix(.90185 -.43204 .50197 .86488 50.777 73.913)"/></g><path stroke="#595959" d="M0-.5h143.508" transform="matrix(.90067 .4345 -.5046 .86336 195.082 16.57)"/><g filter="url(#e)"><path stroke="#595959" d="M0-.5h157.853" transform="matrix(.90284 .42999 -.49977 .86616 192.428 6.052)"/></g><g filter="url(#f)"><path stroke="#909090" d="M335.324 74.126v134.563"/></g><g filter="url(#g)"><path stroke="#D2CBCB" d="M0-.5h157.698" transform="matrix(.90372 -.42812 .49777 .8673 192.428 277.373)"/></g><path fill="#fff" d="m80.175 86.117 8.46-3.856 6.273-2.975-2.046 121.181-7.091-3.593-6.683-2.602z"/><g filter="url(#h)"><path fill="#FFFEFE" d="m140.549 57.66 14.584-6.879 19.128-8.327-3.586 196.589-15.143-7.422-17.932-9.232z"/></g><path fill="#fff" d="m284.203 74.507 14.001 5.83 9.197 3.264v111.152l-23.198 10.137z"/><g filter="url(#i)"><path fill="#fff" d="m214.211 122.807 20.641 104.871-22.59 10.221.797-50.142v-24.87z"/></g><path fill="#fff" d="M248.065 153.164 227.689 50.245l23.791 9.932z"/><path fill="#EAE9E9" d="M49.318 74.26 191.255 6.604l1.18 10.435L60.849 78.913z"/><g filter="url(#j)"><path fill="#E7E5E5" d="m50.47 73.47 10.273 3.06v126.633L50.47 207.39z"/></g><path fill="#FDFCFC" d="m192.27 5.78 142.865 67.925-10.545 5.357L193.393 16.52z"/><path fill="#fff" d="m324.173 79.096 10.651-5.43-.218 135.483-10.608-6.069z"/><path fill="#FDFCFC" d="m192.429 266.66 132.449-63.076 9.948 5.675-142.549 67.692z"/><path fill="#EAE9E9" d="m60.556 203.753 129.782 62.502v10.559L51.156 207.793z"/><g filter="url(#k)"><path stroke="#595959" d="M0-.5h212.646" transform="rotate(90.61 77.59 110.903)skewX(.107)"/></g><path fill="#0A2859" d="m173.48 41.747 15.952-7.322-2.382 212.709-17.226-8.832z"/><path fill="#0C326F" d="m250.033 60.08 32.975 13.898.748 129.919-42.322 20.03 4.578-70.529 2.138-30.865z"/><path fill="#0C326F" d="m212.789 43.11 15.113 6.572 22.753 101.956-3.098 37.479-1.723 20.087v12.738l-12.078 5.262-20.967-104.723v-79.37M94.137 78.61l45.601-21.387-2.866 164.447-44.843-21.633z"/><path fill="#0A2859" d="m94.046 78.683 10.728-5.102-1.281 131.679-11.333-5.082z"/><path fill="#0C326F" d="m190.853 34.672 24.471 9.301v85.886l-1.343 107.794-24.54 10.714z"/><g fill="#071D41" filter="url(#l)"><path d="M6.941 325.623h9.234v53.134H6.941zm28.545-2.672 8.635 9.202v46.605h-8.635zm221.028 0 8.634 9.202v46.605h-8.634zM68.53 326.562h9.63v56.566l-8.552-9.218zm221.575.332h9.631v56.566l-8.552-9.218zm-192.031-.332h8.673v52.196h-8.673z"/><path d="M104.381 326.562h26.612v8.493h-26.612zm2.367 21.757h19.379v8.682h-19.379zm212.221-21.425h33.189v8.552h-33.189zm0 21.614h33.189v8.552h-33.189zm0 21.614h33.189v8.552h-33.189zm-177.496-43.56h9.194v52.196h-9.194zm236.431.332h9.907v51.78h-9.907z"/><path d="M364.307 326.894h38.074v8.552h-38.074zM43.845 345.899v-13.668l29.5 31.184-3.383 11.04zm221.209-.056v-13.669l29.499 31.185-3.382 11.039zm-45.585-23.216 6.178 11.815-23.424 45.038-11.21-.559z"/><path d="M248.838 378.669h-10.786l-19.81-39.541 6.56-6.207zm-99.051-52.107h17.815v8.493h-17.815z"/><path d="m167.586 326.562 5.292 2.133 4.637 3.003 3.748 3.951 1.962 3.889.858 4.053h-8.802l-1.179-2.454-1.857-2.181-4.815-3.989zm-9.576 38.947.381-8.648 26.863 22.317h-12.405z"/><path d="m175.195 343.406 4.442.047 4.442.047.208 3.619-.145 3.651-1.164 3.574-2.772 3.456-3.249 3.133-8.249 4.544-10.204-8.382h5.375l2.903-.262 2.347-.866 3.074-2.602 2.23-3.241.762-3.449z"/></g><g filter="url(#m)"><path stroke="#595959" stroke-width=".6" d="M0-.3h30.427" transform="matrix(.0002 -1 1 .00023 191.602 35.055)"/></g><g filter="url(#n)"><path stroke="#BDBDBD" d="M0-.5h134.306" transform="rotate(90.156 -11.313 61.17)skewX(-.015)"/></g><g filter="url(#o)"><path stroke="#595959" stroke-width=".5" d="M0-.25h102.73" transform="matrix(.18427 .98288 -.9795 .2014 213.264 125.877)"/></g><g filter="url(#p)"><path stroke="#595959" d="M0-.5h108.762" transform="rotate(90.319 -4.499 80.701)skewX(-.031)"/></g><g filter="url(#q)"><path stroke="#595959" stroke-width=".6" d="M0-.3h108.495" transform="rotate(90.029 111.278 195.05)skewX(-.003)"/></g><g filter="url(#r)"><path stroke="#595959" d="M0-.5h126.373" transform="matrix(.91958 .3929 -.36302 .93178 189.797 33.88)"/></g><path fill="#0A2859" fill-opacity=".97" d="m188.895 34.657 1.09-.515 8.259 3.606-8.355 210.666-5.801-2.884z"/><g filter="url(#s)"><path stroke="#1351B4" d="m105.66 73.793-3.436 130.34"/></g><path fill="#EAE9E9" d="m57.604 77.781 134.515-61.063v17.945L75.139 85.83z"/><path fill="#E7E5E5" d="m49.277 73.685 25.839 12.69v131.958L50.264 206.54v-62.974z"/><path fill="#EAE9E9" d="m75.278 193.662 115.051 55.619v25.698l-116.036-56.95z"/><g filter="url(#t)"><path stroke="#000" stroke-width=".5" d="M0-.25h155.863" transform="matrix(.89489 .4463 -.41396 .9103 49.951 206.762)"/></g><path stroke="#CDCCCC" d="m50.118 207.137 1.671-.832"/><g filter="url(#u)"><path stroke="#E7E5E5" d="M0-.5h27.207" transform="matrix(.90852 .41785 -.38674 .92219 51.154 75.403)"/></g><g filter="url(#v)"><path stroke="#DAD9D9" d="M0-.5h27.268" transform="matrix(.89544 -.44519 .4129 .91078 51.152 207.178)"/></g><path fill="#C7C6C6" d="m51.04 207.247.39-.206.58.054.114.806-.984.087z"/><path fill="#fff" d="m46.809 214.69 3.467-5.95 6.436 4.114-3.467 5.95zm-4.493-6.943 4.176-135.65h1.375l-.813 135.65z"/><path fill="#fff" d="m41.049 210.947 3.467-5.95 6.437 4.114-3.467 5.95zm12.197 7.856 3.08-6.179 114.014 62.333-3.08 6.179z"/><g filter="url(#w)"><path stroke="#000" d="M0-.5h164.049" transform="rotate(91.132 42.179 98.697)skewX(-.109)"/></g><g filter="url(#x)"><path stroke="#000" d="M0-.5h129.935" transform="rotate(89.63 104.96 180.596)skewX(.036)"/></g><g filter="url(#y)"><path stroke="#000" d="M0-.5h195.168" transform="rotate(91.011 66.186 107.856)skewX(-.098)"/></g><g filter="url(#z)"><path stroke="#FFFCFC" d="M0-.5h91.822" transform="matrix(.23368 .97231 -.96698 .25487 226.078 46.7)"/></g><g filter="url(#A)"><path stroke="#fff" stroke-width=".6" d="M0-.3h128.836" transform="rotate(89.694 103.474 179.557)skewX(.03)"/></g><g filter="url(#B)"><path stroke="#fff" stroke-width=".5" d="M0-.25h48.533" transform="matrix(.9036 -.42837 .39678 .91791 238.621 224.749)"/></g><path fill="#0C326F" d="m189.482 35.118 10.747 3.803-1.306 46.214-10.603 147.088z"/><path fill="#E7E5E5" d="m51.218 75.8 24.044 12.406v104.356l-23.014 11.367z"/><path fill="#EAE9E9" d="m52.014 207.328 20.46-10.877 114.034 53.89v22.177zM184.029 11.22l10.237-5.168v14.005l-.397 13.24-7.632 3.114z"/><g filter="url(#C)"><path stroke="#969494" stroke-width=".6" d="M0-.3h28.976" transform="rotate(90.77 94.129 97.44)skewX(-.074)"/></g><g filter="url(#D)"><path stroke="#333" stroke-width=".6" d="M0-.3h110.993" transform="rotate(90.2 119.883 198.745)skewX(-.019)"/></g><g filter="url(#E)"><path fill="#F3F3F3" d="m308.43 84.096 26.382-8.418V209.86l-25.987-13.861z"/></g><defs><filter id="a" width="118.037" height="59.337" x="75.883" y="30.778" color-interpolation-filters="sRGB" filterUnits="userSpaceOnUse"><feFlood flood-opacity="0" result="BackgroundImageFix"/><feBlend in="SourceGraphic" in2="BackgroundImageFix" result="shape"/><feGaussianBlur result="effect1_foregroundBlur_500_1999" stdDeviation="2"/></filter><filter id="b" width="115.582" height="62.646" x="76.865" y="190.185" color-interpolation-filters="sRGB" filterUnits="userSpaceOnUse"><feFlood flood-opacity="0" result="BackgroundImageFix"/><feBlend in="SourceGraphic" in2="BackgroundImageFix" result="shape"/><feGaussianBlur result="effect1_foregroundBlur_500_1999" stdDeviation="2"/></filter><filter id="c" width="127.709" height="62.669" x="183.447" y="190.162" color-interpolation-filters="sRGB" filterUnits="userSpaceOnUse"><feFlood flood-opacity="0" result="BackgroundImageFix"/><feBlend in="SourceGraphic" in2="BackgroundImageFix" result="shape"/><feGaussianBlur result="effect1_foregroundBlur_500_1999" stdDeviation="2"/></filter><filter id="d" width="150.154" height="80.725" x="46.275" y="1.188" color-interpolation-filters="sRGB" filterUnits="userSpaceOnUse"><feFlood flood-opacity="0" result="BackgroundImageFix"/><feColorMatrix in="SourceAlpha" result="hardAlpha" values="0 0 0 0 0 0 0 0 0 0 0 0 0 0 0 0 0 0 127 0"/><feOffset dy="4"/><feGaussianBlur stdDeviation="2"/><feComposite in2="hardAlpha" operator="out"/><feColorMatrix values="0 0 0 0 0 0 0 0 0 0 0 0 0 0 0 0 0 0 0.25 0"/><feBlend in2="BackgroundImageFix" result="effect1_dropShadow_500_1999"/><feBlend in="SourceGraphic" in2="effect1_dropShadow_500_1999" result="shape"/><feGaussianBlur result="effect2_foregroundBlur_500_1999" stdDeviation="2"/></filter><filter id="e" width="151.016" height="80.741" x="188.428" y="1.186" color-interpolation-filters="sRGB" filterUnits="userSpaceOnUse"><feFlood flood-opacity="0" result="BackgroundImageFix"/><feColorMatrix in="SourceAlpha" result="hardAlpha" values="0 0 0 0 0 0 0 0 0 0 0 0 0 0 0 0 0 0 127 0"/><feOffset dy="4"/><feGaussianBlur stdDeviation="2"/><feComposite in2="hardAlpha" operator="out"/><feColorMatrix values="0 0 0 0 0 0 0 0 0 0 0 0 0 0 0 0 0 0 0.25 0"/><feBlend in2="BackgroundImageFix" result="effect1_dropShadow_500_1999"/><feBlend in="SourceGraphic" in2="effect1_dropShadow_500_1999" result="shape"/><feGaussianBlur result="effect2_foregroundBlur_500_1999" stdDeviation="2"/></filter><filter id="f" width="9" height="146.563" x="330.824" y="70.126" color-interpolation-filters="sRGB" filterUnits="userSpaceOnUse"><feFlood flood-opacity="0" result="BackgroundImageFix"/><feColorMatrix in="SourceAlpha" result="hardAlpha" values="0 0 0 0 0 0 0 0 0 0 0 0 0 0 0 0 0 0 127 0"/><feOffset dy="4"/><feGaussianBlur stdDeviation="2"/><feComposite in2="hardAlpha" operator="out"/><feColorMatrix values="0 0 0 0 0 0 0 0 0 0 0 0 0 0 0 0 0 0 0.25 0"/><feBlend in2="BackgroundImageFix" result="effect1_dropShadow_500_1999"/><feBlend in="SourceGraphic" in2="effect1_dropShadow_500_1999" result="shape"/><feGaussianBlur result="effect2_foregroundBlur_500_1999" stdDeviation="2"/></filter><filter id="g" width="151.014" height="80.38" x="187.93" y="204.992" color-interpolation-filters="sRGB" filterUnits="userSpaceOnUse"><feFlood flood-opacity="0" result="BackgroundImageFix"/><feColorMatrix in="SourceAlpha" result="hardAlpha" values="0 0 0 0 0 0 0 0 0 0 0 0 0 0 0 0 0 0 127 0"/><feOffset dy="4"/><feGaussianBlur stdDeviation="2"/><feComposite in2="hardAlpha" operator="out"/><feColorMatrix values="0 0 0 0 0 0 0 0 0 0 0 0 0 0 0 0 0 0 0.25 0"/><feBlend in2="BackgroundImageFix" result="effect1_dropShadow_500_1999"/><feBlend in="SourceGraphic" in2="effect1_dropShadow_500_1999" result="shape"/><feGaussianBlur result="effect2_foregroundBlur_500_1999" stdDeviation="2"/></filter><filter id="h" width="36.662" height="200.59" x="137.6" y="42.454" color-interpolation-filters="sRGB" filterUnits="userSpaceOnUse"><feFlood flood-opacity="0" result="BackgroundImageFix"/><feBlend in="SourceGraphic" in2="BackgroundImageFix" result="shape"/><feColorMatrix in="SourceAlpha" result="hardAlpha" values="0 0 0 0 0 0 0 0 0 0 0 0 0 0 0 0 0 0 127 0"/><feOffset dy="4"/><feGaussianBlur stdDeviation="2"/><feComposite in2="hardAlpha" k2="-1" k3="1" operator="arithmetic"/><feColorMatrix values="0 0 0 0 0 0 0 0 0 0 0 0 0 0 0 0 0 0 0.25 0"/><feBlend in2="shape" result="effect1_innerShadow_500_1999"/></filter><filter id="i" width="22.59" height="119.093" x="212.262" y="122.807" color-interpolation-filters="sRGB" filterUnits="userSpaceOnUse"><feFlood flood-opacity="0" result="BackgroundImageFix"/><feBlend in="SourceGraphic" in2="BackgroundImageFix" result="shape"/><feColorMatrix in="SourceAlpha" result="hardAlpha" values="0 0 0 0 0 0 0 0 0 0 0 0 0 0 0 0 0 0 127 0"/><feOffset dy="4"/><feGaussianBlur stdDeviation="2"/><feComposite in2="hardAlpha" k2="-1" k3="1" operator="arithmetic"/><feColorMatrix values="0 0 0 0 0 0 0 0 0 0 0 0 0 0 0 0 0 0 0.25 0"/><feBlend in2="shape" result="effect1_innerShadow_500_1999"/></filter><filter id="j" width="18.271" height="141.919" x="46.471" y="73.471" color-interpolation-filters="sRGB" filterUnits="userSpaceOnUse"><feFlood flood-opacity="0" result="BackgroundImageFix"/><feColorMatrix in="SourceAlpha" result="hardAlpha" values="0 0 0 0 0 0 0 0 0 0 0 0 0 0 0 0 0 0 127 0"/><feOffset dy="4"/><feGaussianBlur stdDeviation="2"/><feComposite in2="hardAlpha" operator="out"/><feColorMatrix values="0 0 0 0 0 0 0 0 0 0 0 0 0 0 0 0 0 0 0.25 0"/><feBlend in2="BackgroundImageFix" result="effect1_dropShadow_500_1999"/><feBlend in="SourceGraphic" in2="effect1_dropShadow_500_1999" result="shape"/></filter><filter id="k" width="11.266" height="220.643" x="183.049" y="30.498" color-interpolation-filters="sRGB" filterUnits="userSpaceOnUse"><feFlood flood-opacity="0" result="BackgroundImageFix"/><feBlend in="SourceGraphic" in2="BackgroundImageFix" result="shape"/><feGaussianBlur result="effect1_foregroundBlur_500_1999" stdDeviation="2"/></filter><filter id="l" width="403.439" height="68.833" x="2.941" y="322.627" color-interpolation-filters="sRGB" filterUnits="userSpaceOnUse"><feFlood flood-opacity="0" result="BackgroundImageFix"/><feColorMatrix in="SourceAlpha" result="hardAlpha" values="0 0 0 0 0 0 0 0 0 0 0 0 0 0 0 0 0 0 127 0"/><feOffset dy="4"/><feGaussianBlur stdDeviation="2"/><feComposite in2="hardAlpha" operator="out"/><feColorMatrix values="0 0 0 0 0 0 0 0 0 0 0 0 0 0 0 0 0 0 0.25 0"/><feBlend in2="BackgroundImageFix" result="effect1_dropShadow_500_1999"/><feBlend in="SourceGraphic" in2="effect1_dropShadow_500_1999" result="shape"/><feColorMatrix in="SourceAlpha" result="hardAlpha" values="0 0 0 0 0 0 0 0 0 0 0 0 0 0 0 0 0 0 127 0"/><feOffset dy="4"/><feGaussianBlur stdDeviation="2"/><feComposite in2="hardAlpha" k2="-1" k3="1" operator="arithmetic"/><feColorMatrix values="0 0 0 0 0 0 0 0 0 0 0 0 0 0 0 0 0 0 0.25 0"/><feBlend in2="shape" result="effect2_innerShadow_500_1999"/></filter><filter id="m" width="8.605" height="38.427" x="187.002" y=".627" color-interpolation-filters="sRGB" filterUnits="userSpaceOnUse"><feFlood flood-opacity="0" result="BackgroundImageFix"/><feBlend in="SourceGraphic" in2="BackgroundImageFix" result="shape"/><feGaussianBlur result="effect1_foregroundBlur_500_1999" stdDeviation="2"/></filter><filter id="n" width="9.365" height="146.309" x="45.461" y="68.649" color-interpolation-filters="sRGB" filterUnits="userSpaceOnUse"><feFlood flood-opacity="0" result="BackgroundImageFix"/><feColorMatrix in="SourceAlpha" result="hardAlpha" values="0 0 0 0 0 0 0 0 0 0 0 0 0 0 0 0 0 0 127 0"/><feOffset dy="4"/><feGaussianBlur stdDeviation="2"/><feComposite in2="hardAlpha" operator="out"/><feColorMatrix values="0 0 0 0 0 0 0 0 0 0 0 0 0 0 0 0 0 0 0.25 0"/><feBlend in2="BackgroundImageFix" result="effect1_dropShadow_500_1999"/><feBlend in="SourceGraphic" in2="effect1_dropShadow_500_1999" result="shape"/><feGaussianBlur result="effect2_foregroundBlur_500_1999" stdDeviation="2"/></filter><filter id="o" width="27.42" height="109.072" x="209.264" y="121.777" color-interpolation-filters="sRGB" filterUnits="userSpaceOnUse"><feFlood flood-opacity="0" result="BackgroundImageFix"/><feBlend in="SourceGraphic" in2="BackgroundImageFix" result="shape"/><feGaussianBlur result="effect1_foregroundBlur_500_1999" stdDeviation="2"/></filter><filter id="p" width="9.605" height="116.766" x="71.57" y="81.649" color-interpolation-filters="sRGB" filterUnits="userSpaceOnUse"><feFlood flood-opacity="0" result="BackgroundImageFix"/><feBlend in="SourceGraphic" in2="BackgroundImageFix" result="shape"/><feGaussianBlur result="effect1_foregroundBlur_500_1999" stdDeviation="2"/></filter><filter id="q" width="8.654" height="116.495" x="302.328" y="79.869" color-interpolation-filters="sRGB" filterUnits="userSpaceOnUse"><feFlood flood-opacity="0" result="BackgroundImageFix"/><feBlend in="SourceGraphic" in2="BackgroundImageFix" result="shape"/><feGaussianBlur result="effect1_foregroundBlur_500_1999" stdDeviation="2"/></filter><filter id="r" width="124.572" height="58.585" x="185.797" y="28.948" color-interpolation-filters="sRGB" filterUnits="userSpaceOnUse"><feFlood flood-opacity="0" result="BackgroundImageFix"/><feBlend in="SourceGraphic" in2="BackgroundImageFix" result="shape"/><feGaussianBlur result="effect1_foregroundBlur_500_1999" stdDeviation="2"/></filter><filter id="s" width="12.435" height="138.366" x="97.725" y="69.78" color-interpolation-filters="sRGB" filterUnits="userSpaceOnUse"><feFlood flood-opacity="0" result="BackgroundImageFix"/><feBlend in="SourceGraphic" in2="BackgroundImageFix" result="shape"/><feGaussianBlur result="effect1_foregroundBlur_500_1999" stdDeviation="2"/></filter><filter id="t" width="147.686" height="82.016" x="45.951" y="202.307" color-interpolation-filters="sRGB" filterUnits="userSpaceOnUse"><feFlood flood-opacity="0" result="BackgroundImageFix"/><feColorMatrix in="SourceAlpha" result="hardAlpha" values="0 0 0 0 0 0 0 0 0 0 0 0 0 0 0 0 0 0 127 0"/><feOffset dy="4"/><feGaussianBlur stdDeviation="2"/><feComposite in2="hardAlpha" operator="out"/><feColorMatrix values="0 0 0 0 0 0 0 0 0 0 0 0 0 0 0 0 0 0 0.25 0"/><feBlend in2="BackgroundImageFix" result="effect1_dropShadow_500_1999"/><feBlend in="SourceGraphic" in2="effect1_dropShadow_500_1999" result="shape"/><feGaussianBlur result="effect2_foregroundBlur_500_1999" stdDeviation="2"/></filter><filter id="u" width="33.105" height="20.291" x="47.154" y="74.481" color-interpolation-filters="sRGB" filterUnits="userSpaceOnUse"><feFlood flood-opacity="0" result="BackgroundImageFix"/><feColorMatrix in="SourceAlpha" result="hardAlpha" values="0 0 0 0 0 0 0 0 0 0 0 0 0 0 0 0 0 0 127 0"/><feOffset dy="4"/><feGaussianBlur stdDeviation="2"/><feComposite in2="hardAlpha" operator="out"/><feColorMatrix values="0 0 0 0 0 0 0 0 0 0 0 0 0 0 0 0 0 0 0.25 0"/><feBlend in2="BackgroundImageFix" result="effect1_dropShadow_500_1999"/><feBlend in="SourceGraphic" in2="effect1_dropShadow_500_1999" result="shape"/></filter><filter id="v" width="32.828" height="21.05" x="46.74" y="194.128" color-interpolation-filters="sRGB" filterUnits="userSpaceOnUse"><feFlood flood-opacity="0" result="BackgroundImageFix"/><feColorMatrix in="SourceAlpha" result="hardAlpha" values="0 0 0 0 0 0 0 0 0 0 0 0 0 0 0 0 0 0 127 0"/><feOffset dy="4"/><feGaussianBlur stdDeviation="2"/><feComposite in2="hardAlpha" operator="out"/><feColorMatrix values="0 0 0 0 0 0 0 0 0 0 0 0 0 0 0 0 0 0 0.25 0"/><feBlend in2="BackgroundImageFix" result="effect1_dropShadow_500_1999"/><feBlend in="SourceGraphic" in2="effect1_dropShadow_500_1999" result="shape"/></filter><filter id="w" width="12.24" height="172.039" x="134.449" y="54.476" color-interpolation-filters="sRGB" filterUnits="userSpaceOnUse"><feFlood flood-opacity="0" result="BackgroundImageFix"/><feBlend in="SourceGraphic" in2="BackgroundImageFix" result="shape"/><feGaussianBlur result="effect1_foregroundBlur_500_1999" stdDeviation="2"/></filter><filter id="x" width="9.838" height="137.939" x="280.875" y="70.466" color-interpolation-filters="sRGB" filterUnits="userSpaceOnUse"><feFlood flood-opacity="0" result="BackgroundImageFix"/><feBlend in="SourceGraphic" in2="BackgroundImageFix" result="shape"/><feGaussianBlur result="effect1_foregroundBlur_500_1999" stdDeviation="2"/></filter><filter id="y" width="12.443" height="203.157" x="167.75" y="39.584" color-interpolation-filters="sRGB" filterUnits="userSpaceOnUse"><feFlood flood-opacity="0" result="BackgroundImageFix"/><feBlend in="SourceGraphic" in2="BackgroundImageFix" result="shape"/><feGaussianBlur result="effect1_foregroundBlur_500_1999" stdDeviation="2"/></filter><filter id="z" width="30.424" height="97.534" x="222.078" y="42.445" color-interpolation-filters="sRGB" filterUnits="userSpaceOnUse"><feFlood flood-opacity="0" result="BackgroundImageFix"/><feBlend in="SourceGraphic" in2="BackgroundImageFix" result="shape"/><feGaussianBlur result="effect1_foregroundBlur_500_1999" stdDeviation="2"/></filter><filter id="A" width="9.289" height="136.837" x="278.475" y="71.122" color-interpolation-filters="sRGB" filterUnits="userSpaceOnUse"><feFlood flood-opacity="0" result="BackgroundImageFix"/><feBlend in="SourceGraphic" in2="BackgroundImageFix" result="shape"/><feGaussianBlur result="effect1_foregroundBlur_500_1999" stdDeviation="2"/></filter><filter id="B" width="52.055" height="29.249" x="234.422" y="199.5" color-interpolation-filters="sRGB" filterUnits="userSpaceOnUse"><feFlood flood-opacity="0" result="BackgroundImageFix"/><feBlend in="SourceGraphic" in2="BackgroundImageFix" result="shape"/><feGaussianBlur result="effect1_foregroundBlur_500_1999" stdDeviation="2"/></filter><filter id="C" width="8.988" height="40.982" x="188.436" y=".628" color-interpolation-filters="sRGB" filterUnits="userSpaceOnUse"><feFlood flood-opacity="0" result="BackgroundImageFix"/><feColorMatrix in="SourceAlpha" result="hardAlpha" values="0 0 0 0 0 0 0 0 0 0 0 0 0 0 0 0 0 0 127 0"/><feOffset dy="4"/><feGaussianBlur stdDeviation="2"/><feComposite in2="hardAlpha" operator="out"/><feColorMatrix values="0 0 0 0 0 0 0 0 0 0 0 0 0 0 0 0 0 0 0.25 0"/><feBlend in2="BackgroundImageFix" result="effect1_dropShadow_500_1999"/><feBlend in="SourceGraphic" in2="effect1_dropShadow_500_1999" result="shape"/><feGaussianBlur result="effect2_foregroundBlur_500_1999" stdDeviation="2"/></filter><filter id="D" width="8.986" height="118.995" x="314.658" y="75.557" color-interpolation-filters="sRGB" filterUnits="userSpaceOnUse"><feFlood flood-opacity="0" result="BackgroundImageFix"/><feBlend in="SourceGraphic" in2="BackgroundImageFix" result="shape"/><feGaussianBlur result="effect1_foregroundBlur_500_1999" stdDeviation="2"/></filter><filter id="E" width="34.383" height="142.182" x="304.43" y="71.678" color-interpolation-filters="sRGB" filterUnits="userSpaceOnUse"><feFlood flood-opacity="0" result="BackgroundImageFix"/><feGaussianBlur in="BackgroundImageFix" stdDeviation="2"/><feComposite in2="SourceAlpha" operator="in" result="effect1_backgroundBlur_500_1999"/><feBlend in="SourceGraphic" in2="effect1_backgroundBlur_500_1999" result="shape"/></filter></defs></svg>