<svg xmlns="http://www.w3.org/2000/svg" width="122" height="26" fill="none"><path fill="#fff" d="M34.762 8.255h2.022v11.366h-2.022zm6.25-.572 1.89 1.969v9.969h-1.89zm48.392 0 1.89 1.969v9.969h-1.89zm-41.158.773h2.109v12.1l-1.873-1.972zm48.514.071h2.108v12.1l-1.872-1.972zm-42.045-.071h1.899v11.165h-1.899z"/><path fill="#fff" d="M56.096 8.456h5.826v1.817h-5.826zm.517 4.654h4.243v1.857h-4.243zm46.465-4.583h7.267v1.829h-7.267zm0 4.623h7.267v1.829h-7.267zm0 4.624h7.267v1.829h-7.267zM64.217 8.456h2.013v11.165h-2.013zm51.765.071h2.169v11.076h-2.169z"/><path fill="#fff" d="M113.006 8.527h8.336v1.829h-8.336zM42.84 12.592V9.67l6.46 6.67-.741 2.362zm48.434-.012V9.656l6.459 6.671-.74 2.361zm-9.981-4.966 1.353 2.528-5.129 9.634-2.454-.12z"/><path fill="#fff" d="M87.723 19.603H85.36l-4.337-8.459 1.436-1.328zM66.037 8.456h3.901v1.817h-3.901z"/><path fill="#fff" d="m69.935 8.456 1.158.456 1.016.643.82.845.43.832.188.867h-1.928l-.258-.525-.406-.467-1.055-.853zm-2.098 8.331.083-1.85 5.882 4.774h-2.716z"/><path fill="#fff" d="m71.6 12.06 1.945.02.045.773-.031.781-.255.765-.607.739-.711.67-1.807.972-2.234-1.793h1.177l.636-.056.514-.185.673-.557.488-.693.167-.738z"/><g filter="url(#a)"><path stroke="#3867FB" d="M0-.5h11.102" transform="matrix(.9123 -.40952 .50082 .86555 3.758 8.188)"/><path stroke="#3867FB" d="M0-.5h11.816" transform="matrix(.92853 .37125 -.4581 .8889 13.887 3.642)"/><path stroke="#000" d="M0-.5h10.991" transform="matrix(.89901 .43792 -.53175 .8469 3.822 17.934)"/><path stroke="#3966FF" d="M0-.5h12.011" transform="matrix(.91619 -.40075 .49112 .87109 13.703 22.747)"/><path stroke="#000" d="M0-.5h11.994" transform="rotate(89.671 -3.063 4.057)skewX(-.074)"/><path stroke="#000" d="M0-.5h11.235" transform="matrix(.00307 1 -1 .00238 1.975 7.49)"/><path stroke="#000" d="M0-.5h13.341" transform="matrix(.9102 -.41419 .50594 .86257 1.975 7.49)"/><path stroke="#000" d="M0-.5h14.415" transform="matrix(.90695 -.42123 .51365 .858 1.045 7.096)"/><path stroke="#000" d="M0-.5h13.169" transform="matrix(.90582 .42365 -.51629 .85641 14.363 1.965)"/><path stroke="#000" d="M0-.5h14.488" transform="matrix(.9079 .4192 -.51143 .85932 14.12 1.024)"/><path stroke="#000" d="M26.793 7.544v11.178m.978-11.624v12.04"/><path stroke="#000" d="M0-.5h13.348" transform="matrix(.90714 .42084 -.51322 .85826 2.01 18.726)"/><path stroke="#000" d="M0-.5h14.443" transform="matrix(.9028 .43006 -.52326 .85218 1.08 19.09)"/><path stroke="#000" d="M0-.5h13.409" transform="matrix(.90792 -.41914 .51136 .85936 14.12 24.343)"/><path stroke="#000" d="M0-.5h14.474" transform="matrix(.90874 -.41736 .50942 .86052 14.12 25.301)"/><path fill="#F3EEEE" d="m3.758 8.188.781-.345.58-.266-.19 10.843-.654-.322-.617-.232z"/><path fill="#fff" d="m9.33 5.642 1.347-.616 1.765-.745-.33 17.59-1.398-.664-1.655-.826z"/><path fill="#F3EEEE" d="m22.963 7.36.918.31.849.293v9.945l-1.767.625z"/><path fill="#fff" d="m16.09 11.467 1.905 9.383-2.085.915.074-4.487v-2.225zm3.163 2.721-1.88-9.21 2.195.89zM1 7.111l13.104-6.097.108.934L1.972 7.43z"/><path fill="#fff" d="m1.045 7.096.948.274V18.7l-.948.379zM14.104 1l13.185 6.078-.973.479-12.109-5.596z"/><path fill="#fff" d="m26.31 7.562.982-.486-.02 12.122-.979-.543zM14.118 24.343 26.342 18.7l.918.508-13.157 6.057zM1.96 18.718l12.156 5.616-.014.933L1.084 19.08z"/></g><path stroke="#000" d="M0-.5h19.027" transform="rotate(90.63 5.16 8.691)skewX(.141)"/><path fill="#0A2859" d="m12.443 4.285 1.472-.655-.22 19.033-1.59-.79z"/><path fill="#0C326F" d="m13.965 3.675 2.123.707v7.707l-.155 9.645-2.2.912zm5.549 2.208 3.43 1.478v11.144L18.72 20.57l.375-6.336.222-2.762z"/><path fill="#0C326F" d="m16.074 4.396 1.262.588 1.9 9.123-.26 3.354-.143 1.797v1.204l-.828.375-1.93-9.339zM5.122 7.573l4.209-1.914-.265 14.715-4.138-1.936z"/><path fill="#0A2859" d="m5.115 7.58.99-.457.14 11.933-1.304-.606z"/><defs><filter id="a" width="27.74" height="29.136" x=".531" y=".165" color-interpolation-filters="sRGB" filterUnits="userSpaceOnUse"><feFlood flood-opacity="0" result="BackgroundImageFix"/><feBlend in="SourceGraphic" in2="BackgroundImageFix" result="shape"/><feColorMatrix in="SourceAlpha" result="hardAlpha" values="0 0 0 0 0 0 0 0 0 0 0 0 0 0 0 0 0 0 127 0"/><feOffset dy="4"/><feGaussianBlur stdDeviation="2"/><feComposite in2="hardAlpha" k2="-1" k3="1" operator="arithmetic"/><feColorMatrix values="0 0 0 0 0 0 0 0 0 0 0 0 0 0 0 0 0 0 0.25 0"/><feBlend in2="shape" result="effect1_innerShadow_590_884"/></filter></defs></svg>