<svg width="407" height="392" viewBox="0 0 407 392" fill="none" xmlns="http://www.w3.org/2000/svg">
<g filter="url(#filter0_f_500_1999)">
<line y1="-0.3" x2="120.937" y2="-0.3" transform="matrix(0.907448 -0.420164 0.489235 0.872152 80.1758 86.1152)" stroke="#595959" stroke-width="0.6"/>
</g>
<line y1="-0.5" x2="127.469" y2="-0.5" transform="matrix(0.921637 0.388054 -0.358418 0.933561 189.92 35.3018)" stroke="#3867FB"/>
<g filter="url(#filter1_f_500_1999)">
<line y1="-0.5" x2="119.816" y2="-0.5" transform="matrix(0.893553 0.448958 -0.519959 0.854191 80.8652 195.039)" stroke="#595959"/>
</g>
<g filter="url(#filter2_f_500_1999)">
<line y1="-0.5" x2="130.801" y2="-0.5" transform="matrix(0.911521 -0.411252 0.479627 0.877472 187.928 248.831)" stroke="#595959"/>
</g>
<line y1="-0.5" x2="134.044" y2="-0.5" transform="matrix(0.00557246 0.999984 -0.999989 0.0045996 50.4023 73.9126)" stroke="#595959"/>
<g filter="url(#filter3_df_500_1999)">
<line y1="-0.5" x2="157.067" y2="-0.5" transform="matrix(0.901852 -0.432044 0.501972 0.864884 50.7773 73.9126)" stroke="#5A5858"/>
</g>
<line y1="-0.5" x2="143.508" y2="-0.5" transform="matrix(0.900672 0.434499 -0.504593 0.863357 195.082 16.5693)" stroke="#595959"/>
<g filter="url(#filter4_df_500_1999)">
<line y1="-0.5" x2="157.853" y2="-0.5" transform="matrix(0.902836 0.429985 -0.49977 0.866158 192.428 6.05225)" stroke="#595959"/>
</g>
<g filter="url(#filter5_df_500_1999)">
<line x1="335.324" y1="74.126" x2="335.324" y2="208.689" stroke="#909090"/>
</g>
<g filter="url(#filter6_df_500_1999)">
<line y1="-0.5" x2="157.698" y2="-0.5" transform="matrix(0.903724 -0.428116 0.49777 0.867309 192.428 277.373)" stroke="#D2CBCB"/>
</g>
<path d="M80.1745 86.1173L88.6347 82.2614L94.9084 79.2861L92.8625 200.467L85.7706 196.874L79.0879 194.272L80.1745 86.1173Z" fill="white"/>
<g filter="url(#filter7_i_500_1999)">
<path d="M140.549 57.6601L155.133 50.7814L174.261 42.4536L170.675 239.043L155.532 231.621L137.6 222.389L140.549 57.6601Z" fill="#FFFEFE"/>
</g>
<path d="M284.203 74.5073L298.204 80.3364L307.401 83.6008V194.753L284.203 204.89V74.5073Z" fill="white"/>
<g filter="url(#filter8_i_500_1999)">
<path d="M214.211 122.807L234.852 227.678L212.262 237.899L213.059 187.757V162.887L214.211 122.807Z" fill="white"/>
</g>
<path d="M248.065 153.164L227.689 50.2454L251.48 60.1767L248.065 153.164Z" fill="white"/>
<path d="M49.3184 74.2593L191.255 6.60498L192.435 17.0403L60.8485 78.9131L49.3184 74.2593Z" fill="#EAE9E9"/>
<g filter="url(#filter9_d_500_1999)">
<path d="M50.4707 73.4707L60.7425 76.5302V203.163L50.4707 207.39V73.4707Z" fill="#E7E5E5"/>
</g>
<path d="M192.27 5.78076L335.135 73.7049L324.59 79.0623L193.393 16.5193L192.27 5.78076Z" fill="#FDFCFC"/>
<path d="M324.173 79.0956L334.824 73.666L334.606 209.149L323.998 203.08L324.173 79.0956Z" fill="white"/>
<path d="M192.429 266.66L324.878 203.584L334.826 209.259L192.277 276.951L192.429 266.66Z" fill="#FDFCFC"/>
<path d="M60.5556 203.753L190.338 266.255V276.814L51.1562 207.793L60.5556 203.753Z" fill="#EAE9E9"/>
<g filter="url(#filter10_f_500_1999)">
<line y1="-0.5" x2="212.646" y2="-0.5" transform="matrix(-0.0106548 0.999943 -0.999961 -0.00879481 189.314 34.4985)" stroke="#595959"/>
</g>
<path d="M173.48 41.7465L189.432 34.4248L187.05 247.134L169.824 238.302L173.48 41.7465Z" fill="#0A2859"/>
<path d="M250.033 60.0801L283.008 73.9781L283.756 203.897L241.434 223.927L246.012 153.398L248.15 122.533L250.033 60.0801Z" fill="#0C326F"/>
<path d="M212.789 43.1108L227.902 49.6815L250.655 151.638L247.557 189.117L245.834 209.204V221.942L233.756 227.204L212.789 122.481V97.3617V43.1108Z" fill="#0C326F"/>
<path d="M94.1369 78.6099L139.738 57.2231L136.872 221.67L92.0293 200.037L94.1369 78.6099Z" fill="#0C326F"/>
<path d="M94.046 78.6827L104.774 73.5806L103.493 205.26L92.1602 200.178L94.046 78.6827Z" fill="#0A2859"/>
<path d="M190.853 34.6717L215.324 43.9733V129.859L213.981 237.653L189.441 248.367L190.853 34.6717Z" fill="#0C326F"/>
<g filter="url(#filter11_di_500_1999)">
<rect x="6.94141" y="325.623" width="9.23439" height="53.1343" fill="#071D41"/>
<path d="M35.4863 322.951L44.1207 332.153V378.758H35.4863V322.951Z" fill="#071D41"/>
<path d="M256.514 322.951L265.148 332.153V378.758H256.514V322.951Z" fill="#071D41"/>
<path d="M68.5293 326.562H78.1599V383.128L69.6083 373.91L68.5293 326.562Z" fill="#071D41"/>
<path d="M290.105 326.894H299.736V383.46L291.184 374.242L290.105 326.894Z" fill="#071D41"/>
<rect x="98.0742" y="326.562" width="8.67343" height="52.1962" fill="#071D41"/>
<rect x="104.381" y="326.562" width="26.6117" height="8.49272" fill="#071D41"/>
<rect x="106.748" y="348.319" width="19.3788" height="8.68249" fill="#071D41"/>
<rect x="318.969" y="326.894" width="33.1892" height="8.55239" fill="#071D41"/>
<rect x="318.969" y="348.508" width="33.1892" height="8.55239" fill="#071D41"/>
<rect x="318.969" y="370.122" width="33.1892" height="8.55239" fill="#071D41"/>
<rect x="141.473" y="326.562" width="9.19435" height="52.1962" fill="#071D41"/>
<rect x="377.904" y="326.894" width="9.90688" height="51.78" fill="#071D41"/>
<rect x="364.307" y="326.894" width="38.0735" height="8.55239" fill="#071D41"/>
<path d="M43.8448 345.899L43.8448 332.231L73.3441 363.415L69.9616 374.455L43.8448 345.899Z" fill="#071D41"/>
<path d="M265.054 345.843L265.054 332.174L294.553 363.359L291.171 374.398L265.054 345.843Z" fill="#071D41"/>
<path d="M219.469 322.627L225.647 334.442L202.223 379.48L191.013 378.921L219.469 322.627Z" fill="#071D41"/>
<path d="M248.838 378.669L238.052 378.669L218.242 339.128L224.802 332.921L248.838 378.669Z" fill="#071D41"/>
<rect x="149.787" y="326.562" width="17.8152" height="8.49272" fill="#071D41"/>
<path d="M167.586 326.562L172.878 328.695L177.515 331.698L181.263 335.649L183.225 339.538L184.083 343.591L175.281 343.591L174.102 341.137L172.245 338.956L167.43 334.967L167.586 326.562Z" fill="#071D41"/>
<path d="M158.01 365.509L158.391 356.861L185.254 379.178L172.849 379.178L158.01 365.509Z" fill="#071D41"/>
<path d="M175.195 343.406L179.637 343.453L184.079 343.5L184.287 347.119L184.142 350.77L182.978 354.344L180.206 357.8L176.957 360.933L168.708 365.477L158.504 357.095H163.879L166.782 356.833L169.129 355.967L172.203 353.365L174.433 350.124L175.195 346.675V343.406Z" fill="#071D41"/>
</g>
<g filter="url(#filter12_f_500_1999)">
<line y1="-0.3" x2="30.4271" y2="-0.3" transform="matrix(0.000207051 -1 1 0.000227071 191.602 35.0547)" stroke="#595959" stroke-width="0.6"/>
</g>
<g filter="url(#filter13_df_500_1999)">
<line y1="-0.5" x2="134.306" y2="-0.5" transform="matrix(-0.00271747 0.999996 -0.999996 -0.00298023 49.8262 72.6489)" stroke="#BDBDBD"/>
</g>
<g filter="url(#filter14_f_500_1999)">
<line y1="-0.25" x2="102.73" y2="-0.25" transform="matrix(0.184273 0.982875 -0.979509 0.201399 213.264 125.877)" stroke="#595959" stroke-width="0.5"/>
</g>
<g filter="url(#filter15_f_500_1999)">
<line y1="-0.5" x2="108.762" y2="-0.5" transform="matrix(-0.00556779 0.999985 -0.999981 -0.00610614 76.1758 85.6494)" stroke="#595959"/>
</g>
<g filter="url(#filter16_f_500_1999)">
<line y1="-0.3" x2="108.495" y2="-0.3" transform="matrix(-0.000499509 1 -1 -0.000547808 306.383 83.8691)" stroke="#595959" stroke-width="0.6"/>
</g>
<g filter="url(#filter17_f_500_1999)">
<line y1="-0.5" x2="126.373" y2="-0.5" transform="matrix(0.919578 0.392908 -0.363021 0.931781 189.797 33.8794)" stroke="#595959"/>
</g>
<path d="M188.895 34.6567L189.985 34.1416L198.244 37.7483L189.889 248.414L184.088 245.53L188.895 34.6567Z" fill="#0A2859" fill-opacity="0.97"/>
<g filter="url(#filter18_f_500_1999)">
<path d="M105.66 73.793L102.224 204.133" stroke="#1351B4"/>
</g>
<path d="M57.6035 77.781L192.119 16.7178V34.6629L75.1384 85.8306L57.6035 77.781Z" fill="#EAE9E9"/>
<path d="M49.2773 73.6846L75.1159 86.3745V218.333L50.2636 206.54V143.566L49.2773 73.6846Z" fill="#E7E5E5"/>
<path d="M75.2781 193.662L190.329 249.281L190.329 274.979L74.2925 218.029L75.2781 193.662Z" fill="#EAE9E9"/>
<g filter="url(#filter19_df_500_1999)">
<line y1="-0.25" x2="155.863" y2="-0.25" transform="matrix(0.894886 0.446296 -0.413955 0.910297 49.9512 206.762)" stroke="black" stroke-width="0.5"/>
</g>
<path d="M50.118 207.137L51.7892 206.305" stroke="#CDCCCC"/>
<g filter="url(#filter20_d_500_1999)">
<line y1="-0.5" x2="27.2072" y2="-0.5" transform="matrix(0.908518 0.417845 -0.386737 0.92219 51.1543 75.4033)" stroke="#E7E5E5"/>
</g>
<g filter="url(#filter21_d_500_1999)">
<line y1="-0.5" x2="27.2681" y2="-0.5" transform="matrix(0.895436 -0.44519 0.412893 0.910779 51.1523 207.178)" stroke="#DAD9D9"/>
</g>
<path d="M51.0395 207.247L51.4294 207.041L52.0092 207.095L52.1245 207.901L51.1397 207.988L51.0395 207.247Z" fill="#C7C6C6"/>
<rect width="6.88619" height="7.63888" transform="matrix(0.5035 -0.863995 0.842613 0.53852 46.8086 214.69)" fill="white"/>
<path d="M42.3164 207.747L46.4915 72.0961L47.8671 72.0961L47.0544 207.747L42.3164 207.747Z" fill="white"/>
<rect width="6.88619" height="7.63888" transform="matrix(0.5035 -0.863995 0.842613 0.53852 41.0488 210.947)" fill="white"/>
<rect width="6.90396" height="129.94" transform="matrix(0.446148 -0.894959 0.87743 0.479705 53.2461 218.803)" fill="white"/>
<g filter="url(#filter22_f_500_1999)">
<line y1="-0.5" x2="164.049" y2="-0.5" transform="matrix(-0.0197518 0.999805 -0.999765 -0.0216609 141.689 58.4756)" stroke="black"/>
</g>
<g filter="url(#filter23_f_500_1999)">
<line y1="-0.5" x2="129.935" y2="-0.5" transform="matrix(0.00644924 0.999979 -0.999975 0.00707281 284.875 74.4731)" stroke="black"/>
</g>
<g filter="url(#filter24_f_500_1999)">
<line y1="-0.5" x2="195.168" y2="-0.5" transform="matrix(-0.0176472 0.999844 -0.999813 -0.019353 175.193 43.5835)" stroke="black"/>
</g>
<g filter="url(#filter25_f_500_1999)">
<line y1="-0.5" x2="91.8216" y2="-0.5" transform="matrix(0.233682 0.972313 -0.966975 0.254871 226.078 46.7002)" stroke="#FFFCFC"/>
</g>
<g filter="url(#filter26_f_500_1999)">
<line y1="-0.3" x2="128.836" y2="-0.3" transform="matrix(0.00534823 0.999986 -0.999983 0.00586536 282.475 75.125)" stroke="white" stroke-width="0.6"/>
</g>
<g filter="url(#filter27_f_500_1999)">
<line y1="-0.25" x2="48.5331" y2="-0.25" transform="matrix(0.903604 -0.428368 0.396784 0.917912 238.621 224.749)" stroke="white" stroke-width="0.5"/>
</g>
<path d="M189.482 35.1182L200.229 38.9206L198.923 85.1345L188.32 232.223L189.482 35.1182Z" fill="#0C326F"/>
<path d="M51.2183 75.8007L75.2618 88.2057L75.2618 192.562L52.2482 203.929L51.2183 75.8007Z" fill="#E7E5E5"/>
<path d="M52.0141 207.328L72.474 196.451L186.508 250.341L186.508 272.518L52.0141 207.328Z" fill="#EAE9E9"/>
<path d="M184.029 11.2192L194.266 6.05176V20.0567L193.869 33.2969L186.237 36.4108L184.029 11.2192Z" fill="#EAE9E9"/>
<g filter="url(#filter28_df_500_1999)">
<line y1="-0.3" x2="28.9758" y2="-0.3" transform="matrix(-0.0134311 0.99991 -0.999892 -0.0147295 192.824 4.62793)" stroke="#969494" stroke-width="0.6"/>
</g>
<g filter="url(#filter29_f_500_1999)">
<line y1="-0.3" x2="110.993" y2="-0.3" transform="matrix(-0.00349273 0.999994 -0.999993 -0.00383045 319.045 79.5566)" stroke="#333333" stroke-width="0.6"/>
</g>
<g filter="url(#filter30_b_500_1999)">
<path d="M308.43 84.0955L334.812 75.6783V209.86L308.825 195.999L308.43 84.0955Z" fill="#F3F3F3"/>
</g>
<defs>
<filter id="filter0_f_500_1999" x="75.8828" y="30.7783" width="118.037" height="59.3369" filterUnits="userSpaceOnUse" color-interpolation-filters="sRGB">
<feFlood flood-opacity="0" result="BackgroundImageFix"/>
<feBlend mode="normal" in="SourceGraphic" in2="BackgroundImageFix" result="shape"/>
<feGaussianBlur stdDeviation="2" result="effect1_foregroundBlur_500_1999"/>
</filter>
<filter id="filter1_f_500_1999" x="76.8652" y="190.185" width="115.582" height="62.646" filterUnits="userSpaceOnUse" color-interpolation-filters="sRGB">
<feFlood flood-opacity="0" result="BackgroundImageFix"/>
<feBlend mode="normal" in="SourceGraphic" in2="BackgroundImageFix" result="shape"/>
<feGaussianBlur stdDeviation="2" result="effect1_foregroundBlur_500_1999"/>
</filter>
<filter id="filter2_f_500_1999" x="183.447" y="190.162" width="127.709" height="62.6694" filterUnits="userSpaceOnUse" color-interpolation-filters="sRGB">
<feFlood flood-opacity="0" result="BackgroundImageFix"/>
<feBlend mode="normal" in="SourceGraphic" in2="BackgroundImageFix" result="shape"/>
<feGaussianBlur stdDeviation="2" result="effect1_foregroundBlur_500_1999"/>
</filter>
<filter id="filter3_df_500_1999" x="46.2754" y="1.1875" width="150.154" height="80.7251" filterUnits="userSpaceOnUse" color-interpolation-filters="sRGB">
<feFlood flood-opacity="0" result="BackgroundImageFix"/>
<feColorMatrix in="SourceAlpha" type="matrix" values="0 0 0 0 0 0 0 0 0 0 0 0 0 0 0 0 0 0 127 0" result="hardAlpha"/>
<feOffset dy="4"/>
<feGaussianBlur stdDeviation="2"/>
<feComposite in2="hardAlpha" operator="out"/>
<feColorMatrix type="matrix" values="0 0 0 0 0 0 0 0 0 0 0 0 0 0 0 0 0 0 0.25 0"/>
<feBlend mode="normal" in2="BackgroundImageFix" result="effect1_dropShadow_500_1999"/>
<feBlend mode="normal" in="SourceGraphic" in2="effect1_dropShadow_500_1999" result="shape"/>
<feGaussianBlur stdDeviation="2" result="effect2_foregroundBlur_500_1999"/>
</filter>
<filter id="filter4_df_500_1999" x="188.428" y="1.18604" width="151.016" height="80.7407" filterUnits="userSpaceOnUse" color-interpolation-filters="sRGB">
<feFlood flood-opacity="0" result="BackgroundImageFix"/>
<feColorMatrix in="SourceAlpha" type="matrix" values="0 0 0 0 0 0 0 0 0 0 0 0 0 0 0 0 0 0 127 0" result="hardAlpha"/>
<feOffset dy="4"/>
<feGaussianBlur stdDeviation="2"/>
<feComposite in2="hardAlpha" operator="out"/>
<feColorMatrix type="matrix" values="0 0 0 0 0 0 0 0 0 0 0 0 0 0 0 0 0 0 0.25 0"/>
<feBlend mode="normal" in2="BackgroundImageFix" result="effect1_dropShadow_500_1999"/>
<feBlend mode="normal" in="SourceGraphic" in2="effect1_dropShadow_500_1999" result="shape"/>
<feGaussianBlur stdDeviation="2" result="effect2_foregroundBlur_500_1999"/>
</filter>
<filter id="filter5_df_500_1999" x="330.824" y="70.126" width="9" height="146.563" filterUnits="userSpaceOnUse" color-interpolation-filters="sRGB">
<feFlood flood-opacity="0" result="BackgroundImageFix"/>
<feColorMatrix in="SourceAlpha" type="matrix" values="0 0 0 0 0 0 0 0 0 0 0 0 0 0 0 0 0 0 127 0" result="hardAlpha"/>
<feOffset dy="4"/>
<feGaussianBlur stdDeviation="2"/>
<feComposite in2="hardAlpha" operator="out"/>
<feColorMatrix type="matrix" values="0 0 0 0 0 0 0 0 0 0 0 0 0 0 0 0 0 0 0.25 0"/>
<feBlend mode="normal" in2="BackgroundImageFix" result="effect1_dropShadow_500_1999"/>
<feBlend mode="normal" in="SourceGraphic" in2="effect1_dropShadow_500_1999" result="shape"/>
<feGaussianBlur stdDeviation="2" result="effect2_foregroundBlur_500_1999"/>
</filter>
<filter id="filter6_df_500_1999" x="187.93" y="204.992" width="151.014" height="80.3804" filterUnits="userSpaceOnUse" color-interpolation-filters="sRGB">
<feFlood flood-opacity="0" result="BackgroundImageFix"/>
<feColorMatrix in="SourceAlpha" type="matrix" values="0 0 0 0 0 0 0 0 0 0 0 0 0 0 0 0 0 0 127 0" result="hardAlpha"/>
<feOffset dy="4"/>
<feGaussianBlur stdDeviation="2"/>
<feComposite in2="hardAlpha" operator="out"/>
<feColorMatrix type="matrix" values="0 0 0 0 0 0 0 0 0 0 0 0 0 0 0 0 0 0 0.25 0"/>
<feBlend mode="normal" in2="BackgroundImageFix" result="effect1_dropShadow_500_1999"/>
<feBlend mode="normal" in="SourceGraphic" in2="effect1_dropShadow_500_1999" result="shape"/>
<feGaussianBlur stdDeviation="2" result="effect2_foregroundBlur_500_1999"/>
</filter>
<filter id="filter7_i_500_1999" x="137.6" y="42.4536" width="36.6621" height="200.59" filterUnits="userSpaceOnUse" color-interpolation-filters="sRGB">
<feFlood flood-opacity="0" result="BackgroundImageFix"/>
<feBlend mode="normal" in="SourceGraphic" in2="BackgroundImageFix" result="shape"/>
<feColorMatrix in="SourceAlpha" type="matrix" values="0 0 0 0 0 0 0 0 0 0 0 0 0 0 0 0 0 0 127 0" result="hardAlpha"/>
<feOffset dy="4"/>
<feGaussianBlur stdDeviation="2"/>
<feComposite in2="hardAlpha" operator="arithmetic" k2="-1" k3="1"/>
<feColorMatrix type="matrix" values="0 0 0 0 0 0 0 0 0 0 0 0 0 0 0 0 0 0 0.25 0"/>
<feBlend mode="normal" in2="shape" result="effect1_innerShadow_500_1999"/>
</filter>
<filter id="filter8_i_500_1999" x="212.262" y="122.807" width="22.5898" height="119.093" filterUnits="userSpaceOnUse" color-interpolation-filters="sRGB">
<feFlood flood-opacity="0" result="BackgroundImageFix"/>
<feBlend mode="normal" in="SourceGraphic" in2="BackgroundImageFix" result="shape"/>
<feColorMatrix in="SourceAlpha" type="matrix" values="0 0 0 0 0 0 0 0 0 0 0 0 0 0 0 0 0 0 127 0" result="hardAlpha"/>
<feOffset dy="4"/>
<feGaussianBlur stdDeviation="2"/>
<feComposite in2="hardAlpha" operator="arithmetic" k2="-1" k3="1"/>
<feColorMatrix type="matrix" values="0 0 0 0 0 0 0 0 0 0 0 0 0 0 0 0 0 0 0.25 0"/>
<feBlend mode="normal" in2="shape" result="effect1_innerShadow_500_1999"/>
</filter>
<filter id="filter9_d_500_1999" x="46.4707" y="73.4707" width="18.2715" height="141.919" filterUnits="userSpaceOnUse" color-interpolation-filters="sRGB">
<feFlood flood-opacity="0" result="BackgroundImageFix"/>
<feColorMatrix in="SourceAlpha" type="matrix" values="0 0 0 0 0 0 0 0 0 0 0 0 0 0 0 0 0 0 127 0" result="hardAlpha"/>
<feOffset dy="4"/>
<feGaussianBlur stdDeviation="2"/>
<feComposite in2="hardAlpha" operator="out"/>
<feColorMatrix type="matrix" values="0 0 0 0 0 0 0 0 0 0 0 0 0 0 0 0 0 0 0.25 0"/>
<feBlend mode="normal" in2="BackgroundImageFix" result="effect1_dropShadow_500_1999"/>
<feBlend mode="normal" in="SourceGraphic" in2="effect1_dropShadow_500_1999" result="shape"/>
</filter>
<filter id="filter10_f_500_1999" x="183.049" y="30.4985" width="11.2656" height="220.643" filterUnits="userSpaceOnUse" color-interpolation-filters="sRGB">
<feFlood flood-opacity="0" result="BackgroundImageFix"/>
<feBlend mode="normal" in="SourceGraphic" in2="BackgroundImageFix" result="shape"/>
<feGaussianBlur stdDeviation="2" result="effect1_foregroundBlur_500_1999"/>
</filter>
<filter id="filter11_di_500_1999" x="2.94141" y="322.627" width="403.439" height="68.833" filterUnits="userSpaceOnUse" color-interpolation-filters="sRGB">
<feFlood flood-opacity="0" result="BackgroundImageFix"/>
<feColorMatrix in="SourceAlpha" type="matrix" values="0 0 0 0 0 0 0 0 0 0 0 0 0 0 0 0 0 0 127 0" result="hardAlpha"/>
<feOffset dy="4"/>
<feGaussianBlur stdDeviation="2"/>
<feComposite in2="hardAlpha" operator="out"/>
<feColorMatrix type="matrix" values="0 0 0 0 0 0 0 0 0 0 0 0 0 0 0 0 0 0 0.25 0"/>
<feBlend mode="normal" in2="BackgroundImageFix" result="effect1_dropShadow_500_1999"/>
<feBlend mode="normal" in="SourceGraphic" in2="effect1_dropShadow_500_1999" result="shape"/>
<feColorMatrix in="SourceAlpha" type="matrix" values="0 0 0 0 0 0 0 0 0 0 0 0 0 0 0 0 0 0 127 0" result="hardAlpha"/>
<feOffset dy="4"/>
<feGaussianBlur stdDeviation="2"/>
<feComposite in2="hardAlpha" operator="arithmetic" k2="-1" k3="1"/>
<feColorMatrix type="matrix" values="0 0 0 0 0 0 0 0 0 0 0 0 0 0 0 0 0 0 0.25 0"/>
<feBlend mode="normal" in2="shape" result="effect2_innerShadow_500_1999"/>
</filter>
<filter id="filter12_f_500_1999" x="187.002" y="0.627441" width="8.60547" height="38.4272" filterUnits="userSpaceOnUse" color-interpolation-filters="sRGB">
<feFlood flood-opacity="0" result="BackgroundImageFix"/>
<feBlend mode="normal" in="SourceGraphic" in2="BackgroundImageFix" result="shape"/>
<feGaussianBlur stdDeviation="2" result="effect1_foregroundBlur_500_1999"/>
</filter>
<filter id="filter13_df_500_1999" x="45.4609" y="68.6489" width="9.36523" height="146.309" filterUnits="userSpaceOnUse" color-interpolation-filters="sRGB">
<feFlood flood-opacity="0" result="BackgroundImageFix"/>
<feColorMatrix in="SourceAlpha" type="matrix" values="0 0 0 0 0 0 0 0 0 0 0 0 0 0 0 0 0 0 127 0" result="hardAlpha"/>
<feOffset dy="4"/>
<feGaussianBlur stdDeviation="2"/>
<feComposite in2="hardAlpha" operator="out"/>
<feColorMatrix type="matrix" values="0 0 0 0 0 0 0 0 0 0 0 0 0 0 0 0 0 0 0.25 0"/>
<feBlend mode="normal" in2="BackgroundImageFix" result="effect1_dropShadow_500_1999"/>
<feBlend mode="normal" in="SourceGraphic" in2="effect1_dropShadow_500_1999" result="shape"/>
<feGaussianBlur stdDeviation="2" result="effect2_foregroundBlur_500_1999"/>
</filter>
<filter id="filter14_f_500_1999" x="209.264" y="121.777" width="27.4199" height="109.072" filterUnits="userSpaceOnUse" color-interpolation-filters="sRGB">
<feFlood flood-opacity="0" result="BackgroundImageFix"/>
<feBlend mode="normal" in="SourceGraphic" in2="BackgroundImageFix" result="shape"/>
<feGaussianBlur stdDeviation="2" result="effect1_foregroundBlur_500_1999"/>
</filter>
<filter id="filter15_f_500_1999" x="71.5703" y="81.6494" width="9.60547" height="116.766" filterUnits="userSpaceOnUse" color-interpolation-filters="sRGB">
<feFlood flood-opacity="0" result="BackgroundImageFix"/>
<feBlend mode="normal" in="SourceGraphic" in2="BackgroundImageFix" result="shape"/>
<feGaussianBlur stdDeviation="2" result="effect1_foregroundBlur_500_1999"/>
</filter>
<filter id="filter16_f_500_1999" x="302.328" y="79.8691" width="8.6543" height="116.495" filterUnits="userSpaceOnUse" color-interpolation-filters="sRGB">
<feFlood flood-opacity="0" result="BackgroundImageFix"/>
<feBlend mode="normal" in="SourceGraphic" in2="BackgroundImageFix" result="shape"/>
<feGaussianBlur stdDeviation="2" result="effect1_foregroundBlur_500_1999"/>
</filter>
<filter id="filter17_f_500_1999" x="185.797" y="28.9478" width="124.572" height="58.585" filterUnits="userSpaceOnUse" color-interpolation-filters="sRGB">
<feFlood flood-opacity="0" result="BackgroundImageFix"/>
<feBlend mode="normal" in="SourceGraphic" in2="BackgroundImageFix" result="shape"/>
<feGaussianBlur stdDeviation="2" result="effect1_foregroundBlur_500_1999"/>
</filter>
<filter id="filter18_f_500_1999" x="97.7246" y="69.7803" width="12.4355" height="138.366" filterUnits="userSpaceOnUse" color-interpolation-filters="sRGB">
<feFlood flood-opacity="0" result="BackgroundImageFix"/>
<feBlend mode="normal" in="SourceGraphic" in2="BackgroundImageFix" result="shape"/>
<feGaussianBlur stdDeviation="2" result="effect1_foregroundBlur_500_1999"/>
</filter>
<filter id="filter19_df_500_1999" x="45.9512" y="202.307" width="147.686" height="82.0161" filterUnits="userSpaceOnUse" color-interpolation-filters="sRGB">
<feFlood flood-opacity="0" result="BackgroundImageFix"/>
<feColorMatrix in="SourceAlpha" type="matrix" values="0 0 0 0 0 0 0 0 0 0 0 0 0 0 0 0 0 0 127 0" result="hardAlpha"/>
<feOffset dy="4"/>
<feGaussianBlur stdDeviation="2"/>
<feComposite in2="hardAlpha" operator="out"/>
<feColorMatrix type="matrix" values="0 0 0 0 0 0 0 0 0 0 0 0 0 0 0 0 0 0 0.25 0"/>
<feBlend mode="normal" in2="BackgroundImageFix" result="effect1_dropShadow_500_1999"/>
<feBlend mode="normal" in="SourceGraphic" in2="effect1_dropShadow_500_1999" result="shape"/>
<feGaussianBlur stdDeviation="2" result="effect2_foregroundBlur_500_1999"/>
</filter>
<filter id="filter20_d_500_1999" x="47.1543" y="74.481" width="33.1055" height="20.2905" filterUnits="userSpaceOnUse" color-interpolation-filters="sRGB">
<feFlood flood-opacity="0" result="BackgroundImageFix"/>
<feColorMatrix in="SourceAlpha" type="matrix" values="0 0 0 0 0 0 0 0 0 0 0 0 0 0 0 0 0 0 127 0" result="hardAlpha"/>
<feOffset dy="4"/>
<feGaussianBlur stdDeviation="2"/>
<feComposite in2="hardAlpha" operator="out"/>
<feColorMatrix type="matrix" values="0 0 0 0 0 0 0 0 0 0 0 0 0 0 0 0 0 0 0.25 0"/>
<feBlend mode="normal" in2="BackgroundImageFix" result="effect1_dropShadow_500_1999"/>
<feBlend mode="normal" in="SourceGraphic" in2="effect1_dropShadow_500_1999" result="shape"/>
</filter>
<filter id="filter21_d_500_1999" x="46.7402" y="194.128" width="32.8281" height="21.0503" filterUnits="userSpaceOnUse" color-interpolation-filters="sRGB">
<feFlood flood-opacity="0" result="BackgroundImageFix"/>
<feColorMatrix in="SourceAlpha" type="matrix" values="0 0 0 0 0 0 0 0 0 0 0 0 0 0 0 0 0 0 127 0" result="hardAlpha"/>
<feOffset dy="4"/>
<feGaussianBlur stdDeviation="2"/>
<feComposite in2="hardAlpha" operator="out"/>
<feColorMatrix type="matrix" values="0 0 0 0 0 0 0 0 0 0 0 0 0 0 0 0 0 0 0.25 0"/>
<feBlend mode="normal" in2="BackgroundImageFix" result="effect1_dropShadow_500_1999"/>
<feBlend mode="normal" in="SourceGraphic" in2="effect1_dropShadow_500_1999" result="shape"/>
</filter>
<filter id="filter22_f_500_1999" x="134.449" y="54.4756" width="12.2402" height="172.039" filterUnits="userSpaceOnUse" color-interpolation-filters="sRGB">
<feFlood flood-opacity="0" result="BackgroundImageFix"/>
<feBlend mode="normal" in="SourceGraphic" in2="BackgroundImageFix" result="shape"/>
<feGaussianBlur stdDeviation="2" result="effect1_foregroundBlur_500_1999"/>
</filter>
<filter id="filter23_f_500_1999" x="280.875" y="70.4663" width="9.83789" height="137.939" filterUnits="userSpaceOnUse" color-interpolation-filters="sRGB">
<feFlood flood-opacity="0" result="BackgroundImageFix"/>
<feBlend mode="normal" in="SourceGraphic" in2="BackgroundImageFix" result="shape"/>
<feGaussianBlur stdDeviation="2" result="effect1_foregroundBlur_500_1999"/>
</filter>
<filter id="filter24_f_500_1999" x="167.75" y="39.5835" width="12.4434" height="203.157" filterUnits="userSpaceOnUse" color-interpolation-filters="sRGB">
<feFlood flood-opacity="0" result="BackgroundImageFix"/>
<feBlend mode="normal" in="SourceGraphic" in2="BackgroundImageFix" result="shape"/>
<feGaussianBlur stdDeviation="2" result="effect1_foregroundBlur_500_1999"/>
</filter>
<filter id="filter25_f_500_1999" x="222.078" y="42.4453" width="30.4238" height="97.5342" filterUnits="userSpaceOnUse" color-interpolation-filters="sRGB">
<feFlood flood-opacity="0" result="BackgroundImageFix"/>
<feBlend mode="normal" in="SourceGraphic" in2="BackgroundImageFix" result="shape"/>
<feGaussianBlur stdDeviation="2" result="effect1_foregroundBlur_500_1999"/>
</filter>
<filter id="filter26_f_500_1999" x="278.475" y="71.1216" width="9.28906" height="136.837" filterUnits="userSpaceOnUse" color-interpolation-filters="sRGB">
<feFlood flood-opacity="0" result="BackgroundImageFix"/>
<feBlend mode="normal" in="SourceGraphic" in2="BackgroundImageFix" result="shape"/>
<feGaussianBlur stdDeviation="2" result="effect1_foregroundBlur_500_1999"/>
</filter>
<filter id="filter27_f_500_1999" x="234.422" y="199.5" width="52.0547" height="29.249" filterUnits="userSpaceOnUse" color-interpolation-filters="sRGB">
<feFlood flood-opacity="0" result="BackgroundImageFix"/>
<feBlend mode="normal" in="SourceGraphic" in2="BackgroundImageFix" result="shape"/>
<feGaussianBlur stdDeviation="2" result="effect1_foregroundBlur_500_1999"/>
</filter>
<filter id="filter28_df_500_1999" x="188.436" y="0.62793" width="8.98828" height="40.9819" filterUnits="userSpaceOnUse" color-interpolation-filters="sRGB">
<feFlood flood-opacity="0" result="BackgroundImageFix"/>
<feColorMatrix in="SourceAlpha" type="matrix" values="0 0 0 0 0 0 0 0 0 0 0 0 0 0 0 0 0 0 127 0" result="hardAlpha"/>
<feOffset dy="4"/>
<feGaussianBlur stdDeviation="2"/>
<feComposite in2="hardAlpha" operator="out"/>
<feColorMatrix type="matrix" values="0 0 0 0 0 0 0 0 0 0 0 0 0 0 0 0 0 0 0.25 0"/>
<feBlend mode="normal" in2="BackgroundImageFix" result="effect1_dropShadow_500_1999"/>
<feBlend mode="normal" in="SourceGraphic" in2="effect1_dropShadow_500_1999" result="shape"/>
<feGaussianBlur stdDeviation="2" result="effect2_foregroundBlur_500_1999"/>
</filter>
<filter id="filter29_f_500_1999" x="314.658" y="75.5566" width="8.98633" height="118.995" filterUnits="userSpaceOnUse" color-interpolation-filters="sRGB">
<feFlood flood-opacity="0" result="BackgroundImageFix"/>
<feBlend mode="normal" in="SourceGraphic" in2="BackgroundImageFix" result="shape"/>
<feGaussianBlur stdDeviation="2" result="effect1_foregroundBlur_500_1999"/>
</filter>
<filter id="filter30_b_500_1999" x="304.43" y="71.6782" width="34.3828" height="142.182" filterUnits="userSpaceOnUse" color-interpolation-filters="sRGB">
<feFlood flood-opacity="0" result="BackgroundImageFix"/>
<feGaussianBlur in="BackgroundImageFix" stdDeviation="2"/>
<feComposite in2="SourceAlpha" operator="in" result="effect1_backgroundBlur_500_1999"/>
<feBlend mode="normal" in="SourceGraphic" in2="effect1_backgroundBlur_500_1999" result="shape"/>
</filter>
</defs>
</svg>
