<svg xmlns="http://www.w3.org/2000/svg" width="180" height="68" fill="none"><g filter="url(#a)"><rect width="172" height="59" x="4" y=".5" fill="#fff" rx="29.5"/><rect width="171" height="58" x="4.5" y="1" stroke="#000" stroke-opacity=".54" rx="29"/><path fill="#155BCB" d="M97.012 35.822V38H86.298V22.38h10.516v2.178h-8.052v4.444h6.974v2.046h-6.974v4.774zM109.478 38h-2.42v-6.446q0-1.605-.528-2.354-.506-.748-1.518-.748-.704 0-1.408.352a4.3 4.3 0 0 0-1.232.968 3.5 3.5 0 0 0-.792 1.386V38h-2.42V26.494h2.2v2.31a4.5 4.5 0 0 1 1.144-1.32 5.5 5.5 0 0 1 1.628-.88 5.9 5.9 0 0 1 1.914-.308q1.034 0 1.694.374.682.374 1.056 1.034.396.638.528 1.496.154.835.154 1.782zm9.125-.594a9 9 0 0 1-.77.33q-.462.176-1.056.308a5.3 5.3 0 0 1-1.188.132q-.749 0-1.386-.264a2.3 2.3 0 0 1-1.034-.836q-.374-.594-.374-1.518v-7.194h-1.518v-1.87h1.518V22.71h2.42v3.784h2.508v1.87h-2.508v6.424q.044.594.374.88.352.285.858.286.506 0 .968-.176t.682-.286zm8.144-8.822q-1.408.022-2.508.638-1.078.615-1.54 1.738V38h-2.42V26.494h2.244v2.574q.594-1.188 1.562-1.892.967-.726 2.046-.792h.352q.154 0 .264.022zm.903 6.05q0-1.1.616-1.914.639-.836 1.738-1.276 1.1-.462 2.552-.462.77 0 1.562.11a6.2 6.2 0 0 1 1.43.352v-.726q0-1.21-.726-1.892t-2.09-.682q-.968 0-1.826.352-.858.33-1.826.946l-.814-1.628a9.3 9.3 0 0 1 2.288-1.144 8 8 0 0 1 2.442-.374q2.31 0 3.63 1.232 1.342 1.21 1.342 3.454v4.29q0 .419.132.594.155.175.506.198V38a5.3 5.3 0 0 1-1.034.11q-.77 0-1.166-.374a1.44 1.44 0 0 1-.462-.88l-.066-.66a4.95 4.95 0 0 1-1.914 1.496 5.7 5.7 0 0 1-2.354.528q-1.143 0-2.046-.462a3.66 3.66 0 0 1-1.408-1.298 3.4 3.4 0 0 1-.506-1.826m7.326.704q.264-.285.418-.572.154-.286.154-.506v-1.32a6.3 6.3 0 0 0-1.298-.352 7 7 0 0 0-1.342-.132q-1.32 0-2.156.528-.813.528-.814 1.452 0 .506.264.968.286.462.792.748.528.285 1.298.286.792 0 1.518-.308t1.166-.792m12.396-6.754q-1.409.022-2.508.638-1.078.615-1.54 1.738V38h-2.42V26.494h2.244v2.574q.594-1.188 1.562-1.892.968-.726 2.046-.792h.352q.155 0 .264.022zM45.66 29.75c-3.05 0-5.5-2.45-5.5-5.5 0-3.008 2.45-5.5 5.5-5.5 3.008 0 5.5 2.492 5.5 5.5 0 3.05-2.492 5.5-5.5 5.5m3.824 1.375c3.18 0 5.801 2.621 5.801 5.8v1.763c0 1.16-.945 2.062-2.062 2.062H38.098a2.036 2.036 0 0 1-2.063-2.062v-1.762c0-3.18 2.578-5.801 5.758-5.801h.73c.946.473 2.02.688 3.137.688s2.149-.215 3.094-.688z"/></g><defs><filter id="a" width="180" height="67" x="0" y=".5" color-interpolation-filters="sRGB" filterUnits="userSpaceOnUse"><feFlood flood-opacity="0" result="BackgroundImageFix"/><feColorMatrix in="SourceAlpha" result="hardAlpha" values="0 0 0 0 0 0 0 0 0 0 0 0 0 0 0 0 0 0 127 0"/><feOffset dy="4"/><feGaussianBlur stdDeviation="2"/><feComposite in2="hardAlpha" operator="out"/><feColorMatrix values="0 0 0 0 0 0 0 0 0 0 0 0 0 0 0 0 0 0 0.25 0"/><feBlend in2="BackgroundImageFix" result="effect1_dropShadow_220_4515"/><feBlend in="SourceGraphic" in2="effect1_dropShadow_220_4515" result="shape"/></filter></defs></svg>