<svg width="36" height="36" viewBox="0 0 40 33" fill="none" xmlns="http://www.w3.org/2000/svg">
<path d="M29.5234 5.34043L39.1172 14.2146C39.6797 14.735 40 15.4504 40 16.1875C40 16.9246 39.6797 17.64 39.1172 18.1604L29.5234 27.0346C29.0234 27.4971 28.3516 27.75 27.6484 27.75C26.1875 27.75 25 26.6516 25 25.3002V20.8125H15C13.6172 20.8125 12.5 19.7791 12.5 18.5V13.875C12.5 12.5959 13.6172 11.5625 15 11.5625H25V7.0748C25 5.72344 26.1875 4.625 27.6484 4.625C28.3516 4.625 29.0234 4.88516 29.5234 5.34043ZM12.5 4.625H7.5C6.11719 4.625 5 5.6584 5 6.9375V25.4375C5 26.7166 6.11719 27.75 7.5 27.75H12.5C13.8828 27.75 15 28.7834 15 30.0625C15 31.3416 13.8828 32.375 12.5 32.375H7.5C3.35938 32.375 0 29.2676 0 25.4375V6.9375C0 3.10742 3.35938 0 7.5 0H12.5C13.8828 0 15 1.0334 15 2.3125C15 3.5916 13.8828 4.625 12.5 4.625Z" fill="white"/>
</svg>
