<svg xmlns="http://www.w3.org/2000/svg" width="46" height="46" fill="none" viewBox="0 0 46 47"><path fill="#fff" d="M22.5 18.041a.7.7 0 0 1 .5-.187c.125 0 .313.062.438.187L35 27.479v10.25c0 .562-.5 1-1 1h-7.062c-.5 0-1-.438-1-1v-6c0-.5-.438-1-1-1h-4c-.5 0-1 .5-1 1v6c0 .562-.438 1-.938 1h-7c-.562 0-1-.438-1-1V27.54zm18.188 6.438a.75.75 0 0 1 .312.562.7.7 0 0 1-.187.5l-1.626 1.938c-.124.187-.312.25-.562.25a.7.7 0 0 1-.5-.188L23.438 15.479A.68.68 0 0 0 23 15.29a.7.7 0 0 0-.5.188L7.813 27.54a.7.7 0 0 1-.5.188c-.25 0-.438-.063-.563-.25L5.125 25.54c-.062-.125-.187-.312-.187-.5 0-.187.125-.437.312-.562l15.813-13.063A3.26 3.26 0 0 1 23 10.791c.688 0 1.375.25 1.875.625l5.625 4.625v-4.5c0-.437.313-.75.75-.75h3.5a.76.76 0 0 1 .75.75v8.625z"/></svg>