<svg xmlns="http://www.w3.org/2000/svg" width="36" height="33" fill="none"><path fill="#1351B4" d="m26.571 5.382 8.635 8.886c.506.521.794 1.237.794 1.976s-.288 1.454-.794 1.975l-8.635 8.886a2.34 2.34 0 0 1-1.687.716c-1.315 0-2.384-1.1-2.384-2.453v-4.493h-9c-1.245 0-2.25-1.035-2.25-2.316v-4.631c0-1.28 1.005-2.316 2.25-2.316h9V7.12c0-1.353 1.069-2.453 2.384-2.453.632 0 1.237.26 1.687.716M11.25 4.666h-4.5C5.505 4.666 4.5 5.7 4.5 6.98v18.525c0 1.28 1.005 2.315 2.25 2.315h4.5c1.245 0 2.25 1.035 2.25 2.316s-1.005 2.315-2.25 2.315h-4.5c-3.727 0-6.75-3.111-6.75-6.946V6.98C0 3.146 3.023.035 6.75.035h4.5c1.245 0 2.25 1.034 2.25 2.315s-1.005 2.316-2.25 2.316"/></svg>