<svg xmlns="http://www.w3.org/2000/svg" width="25" height="25" fill="none"><g clip-path="url(#a)"><path fill="#1351B4" d="M11.724.205a1.57 1.57 0 0 1 1.553 0l8.388 4.79.21.083v.044l2.34 1.338a1.562 1.562 0 0 1-.772 2.92H1.563A1.562 1.562 0 0 1 .79 6.46l2.334-1.338v-.044L3.34 5zM3.125 10.938H6.25v9.375h1.953v-9.375h3.125v9.375h2.344v-9.375h3.125v9.375h1.953v-9.375h3.125v9.585a1 1 0 0 1 .088.053l2.344 1.563c.571.38.83 1.093.63 1.753S24.127 25 23.437 25H1.564a1.56 1.56 0 0 1-.864-2.861l2.343-1.563c.03-.02.059-.034.088-.053v-9.585z"/></g><defs><clipPath id="a"><path fill="#fff" d="M0 0h25v25H0z"/></clipPath></defs></svg>