<svg xmlns="http://www.w3.org/2000/svg" width="25" height="25" fill="none"><g clip-path="url(#a)"><path fill="#1351B4" d="M5.625 0c.829 0 1.624.412 2.21 1.144.586.733.915 1.726.915 2.762s-.33 2.03-.915 2.762c-.586.733-1.381 1.144-2.21 1.144s-1.624-.411-2.21-1.144S2.5 4.942 2.5 3.906s.33-2.03.915-2.762C4.001.412 4.796 0 5.625 0M20 0c.829 0 1.624.412 2.21 1.144.586.733.915 1.726.915 2.762s-.33 2.03-.915 2.762c-.586.733-1.381 1.144-2.21 1.144s-1.624-.411-2.21-1.144-.915-1.726-.915-2.762.33-2.03.915-2.762C18.376.412 19.171 0 20 0M0 14.585c0-2.876 1.867-5.21 4.168-5.21h1.668a3.5 3.5 0 0 1 1.742.474c-.05.351-.074.717-.074 1.088 0 1.866.656 3.54 1.691 4.688H.832c-.457 0-.832-.469-.832-1.04m15.832 1.04h-.027c1.039-1.148 1.691-2.822 1.691-4.687q-.002-.556-.074-1.09a3.45 3.45 0 0 1 1.742-.473h1.668c2.3 0 4.168 2.334 4.168 5.21 0 .576-.375 1.04-.832 1.04zM8.75 10.938c0-1.244.395-2.436 1.098-3.315.704-.88 1.657-1.373 2.652-1.373s1.948.494 2.652 1.373c.703.879 1.098 2.071 1.098 3.315s-.395 2.435-1.098 3.314c-.704.88-1.657 1.373-2.652 1.373s-1.948-.494-2.652-1.373c-.703-.879-1.098-2.071-1.098-3.315M5 23.696c0-3.594 2.332-6.509 5.207-6.509h4.586c2.875 0 5.207 2.915 5.207 6.51 0 .717-.465 1.303-1.043 1.303H6.043C5.469 25 5 24.419 5 23.696"/></g><defs><clipPath id="a"><path fill="#fff" d="M0 0h25v25H0z"/></clipPath></defs></svg>