<svg xmlns="http://www.w3.org/2000/svg" width="25" height="25" fill="none"><g clip-path="url(#a)"><path fill="#1351B4" d="M24.991 12.476c0 .878-.65 1.567-1.389 1.567h-1.389l.03 7.822q-.001.198-.02.396v.786c0 1.079-.778 1.953-1.737 1.953h-.694q-.072.001-.144-.005-.09.006-.182.005h-2.452c-.96 0-1.736-.874-1.736-1.953V18.75c0-.864-.62-1.562-1.39-1.562h-2.777c-.768 0-1.389.698-1.389 1.562v4.297c0 1.079-.777 1.953-1.736 1.953H5.56q-.098-.001-.195-.01-.08.009-.157.01h-.694c-.96 0-1.736-.874-1.736-1.953v-5.469c0-.044 0-.093.004-.137v-3.398H1.39c-.782 0-1.39-.684-1.39-1.567 0-.44.13-.83.434-1.172L11.563.39c.303-.342.65-.391.954-.391s.651.098.912.342l11.085 10.962c.347.341.52.732.477 1.172"/></g><defs><clipPath id="a"><path fill="#fff" d="M0 0h25v25H0z"/></clipPath></defs></svg>