<svg xmlns="http://www.w3.org/2000/svg" width="25" height="25" fill="none"><g clip-path="url(#a)"><path fill="#1351B4" d="M23.438 1.562a1.565 1.565 0 0 0-2.67-1.108l-2.13 2.134A12.5 12.5 0 0 1 9.8 6.25H3.125A3.13 3.13 0 0 0 0 9.375v4.687a3.13 3.13 0 0 0 3.125 3.125v6.25A1.56 1.56 0 0 0 4.688 25h3.125a1.56 1.56 0 0 0 1.562-1.563v-6.25H9.8a12.5 12.5 0 0 1 8.838 3.662l2.129 2.13c.449.448 1.118.58 1.704.336s.966-.81.966-1.445v-7.202c.909-.43 1.563-1.587 1.563-2.95 0-1.362-.654-2.519-1.562-2.949zm-3.125 3.745V18.13A15.62 15.62 0 0 0 9.8 14.063h-.425V9.375H9.8c3.896 0 7.641-1.455 10.513-4.068"/><rect width="5.17" height="6.204" x="2.167" y="8.658" fill="#fff" rx="2.585"/><path fill="#fff" d="M5.092 18.216c0-.552.447-.998.998-.998h.25c.55 0 .997.447.997.997v3.867a1.123 1.123 0 0 1-2.245 0z"/></g><defs><clipPath id="a"><path fill="#fff" d="M0 0h25v25H0z"/></clipPath></defs></svg>