<svg xmlns="http://www.w3.org/2000/svg" width="36" height="36" fill="none"><path fill="#fff" d="M14.413 16.826c1.798 0 3.524-.886 4.796-2.464 1.271-1.578 1.986-3.718 1.986-5.949s-.715-4.371-1.986-5.949C17.937.886 16.21 0 14.413 0c-1.8 0-3.524.886-4.796 2.464S7.63 6.182 7.63 8.413s.715 4.371 1.987 5.949c1.271 1.578 2.997 2.464 4.795 2.464m-2.422 3.155c-5.22 0-9.448 5.245-9.448 11.72 0 1.077.705 1.951 1.574 1.951h19.23a5 5 0 0 1-.456-2.103v-8.413q0-.207.016-.414c-1.643-1.71-3.762-2.741-6.073-2.741zm18.53-4.207c.938 0 1.696.94 1.696 2.104v3.155h-3.391v-3.155c0-1.164.757-2.104 1.695-2.104m-4.239 2.104v3.155c-.938 0-1.696.94-1.696 2.103v8.413c0 1.163.758 2.103 1.696 2.103h8.478c.938 0 1.696-.94 1.696-2.103v-8.413c0-1.163-.758-2.103-1.696-2.103v-3.155c0-2.905-1.897-5.258-4.239-5.258s-4.239 2.353-4.239 5.258"/></svg>