<svg xmlns="http://www.w3.org/2000/svg" width="36" height="36" fill="none"><g clip-path="url(#a)"><path fill="#fff" d="M12.6 0c1.91 0 3.74.948 5.091 2.636S19.8 6.613 19.8 9s-.759 4.676-2.109 6.364S14.51 18 12.6 18s-3.74-.948-5.091-2.636S5.4 11.387 5.4 9s.759-4.676 2.109-6.364S10.69 0 12.6 0m-2.57 21.375h5.14c.664 0 1.317.084 1.941.232-.118 1.3.416 2.503 1.226 3.15-.933.745-1.501 2.222-1.125 3.748.226.907.53 1.793.923 2.643a13 13 0 0 0 1.372 2.32c.884 1.189 2.228 1.294 3.218.612v.064c0 .647.152 1.3.444 1.849H1.671C.748 36 0 35.065 0 33.912c0-6.926 4.489-12.537 10.03-12.537m14.495-6.033c0-.492.253-.935.636-1.04a6.64 6.64 0 0 1 3.679 0c.382.105.635.548.635 1.04v2.152c.444.239.866.541 1.254.9l1.401-1.006c.343-.246.77-.19 1.04.169q.642.857 1.131 1.913c.326.703.58 1.434.76 2.18.118.47-.062.963-.405 1.209l-1.407 1.012c.023.281.04.57.04.865s-.011.576-.04.865l1.407 1.012c.343.246.517.739.405 1.21a12.6 12.6 0 0 1-.76 2.18c-.32.703-.703 1.342-1.13 1.912-.27.358-.703.415-1.041.169l-1.4-1.006a6 6 0 0 1-1.255.9v2.152c0 .492-.253.935-.636 1.04a6.64 6.64 0 0 1-3.679 0c-.382-.105-.635-.548-.635-1.04v-2.152a5.8 5.8 0 0 1-1.266-.907l-1.389 1.006c-.343.246-.77.19-1.04-.17a10.6 10.6 0 0 1-1.131-1.912 11.7 11.7 0 0 1-.76-2.18c-.118-.47.062-.963.405-1.209l1.395-1.005a11 11 0 0 1-.039-.872q-.002-.441.04-.872l-1.401-1.005c-.343-.247-.518-.739-.405-1.21.185-.745.433-1.476.76-2.18q.488-1.056 1.13-1.912c.27-.359.697-.415 1.04-.169l1.395 1.006a6.4 6.4 0 0 1 1.266-.907zm5.18 9.387a4.2 4.2 0 0 0-.169-1.34 3.6 3.6 0 0 0-.577-1.15 2.8 2.8 0 0 0-.892-.774 2.25 2.25 0 0 0-1.064-.272 2.25 2.25 0 0 0-1.064.272c-.336.18-.64.443-.892.773a3.6 3.6 0 0 0-.578 1.15 4.2 4.2 0 0 0-.169 1.34c-.017.457.04.914.17 1.342.128.428.324.819.577 1.15s.556.593.892.773.698.272 1.064.272a2.25 2.25 0 0 0 1.064-.272c.336-.18.64-.443.892-.774a3.6 3.6 0 0 0 .577-1.15c.129-.427.186-.883.17-1.34"/></g><defs><clipPath id="a"><path fill="#fff" d="M0 0h36v36H0z"/></clipPath></defs></svg>